<svg width="24" height="24" viewBox="0 0 24 24" fill="none" xmlns="http://www.w3.org/2000/svg">
<path fill-rule="evenodd" clip-rule="evenodd" d="M12.5 4L5 9.83333V19C5 19.442 5.17559 19.866 5.48816 20.1785C5.80072 20.4911 6.22464 20.6667 6.66667 20.6667H9.52767C9.50947 20.5582 9.5 20.4469 9.5 20.3333V13.3333C9.5 12.2287 10.3954 11.3333 11.5 11.3333H13.5C14.6046 11.3333 15.5 12.2287 15.5 13.3333V20.3333C15.5 20.4469 15.4905 20.5582 15.4723 20.6667H18.3333C18.7754 20.6667 19.1993 20.4911 19.5118 20.1785C19.8244 19.866 20 19.442 20 19V9.83333L12.5 4Z" fill="#FFF9F8"/>
<path d="M5 9.83333L4.38606 9.04398C4.14247 9.23344 4 9.52474 4 9.83333H5ZM12.5 4L13.1139 3.21065C12.7528 2.92978 12.2472 2.92978 11.8861 3.21065L12.5 4ZM5.48816 20.1785L4.78105 20.8856H4.78105L5.48816 20.1785ZM9.52767 20.6667V21.6667C9.82181 21.6667 10.101 21.5372 10.291 21.3126C10.4811 21.0881 10.5626 20.7913 10.5139 20.5012L9.52767 20.6667ZM15.4723 20.6667L14.4861 20.5012C14.4374 20.7913 14.5189 21.0881 14.709 21.3126C14.899 21.5372 15.1782 21.6667 15.4723 21.6667V20.6667ZM20 9.83333H21C21 9.52474 20.8575 9.23344 20.6139 9.04398L20 9.83333ZM5.61394 10.6227L13.1139 4.78935L11.8861 3.21065L4.38606 9.04398L5.61394 10.6227ZM6 19V9.83333H4V19H6ZM6.19526 19.4714C6.07024 19.3464 6 19.1768 6 19H4C4 19.7072 4.28095 20.3855 4.78105 20.8856L6.19526 19.4714ZM6.66667 19.6667C6.48986 19.6667 6.32029 19.5964 6.19526 19.4714L4.78105 20.8856C5.28115 21.3857 5.95942 21.6667 6.66667 21.6667V19.6667ZM9.52767 19.6667H6.66667V21.6667H9.52767V19.6667ZM10.5139 20.5012C10.5048 20.4472 10.5 20.3912 10.5 20.3333H8.5C8.5 20.5025 8.51412 20.6693 8.54146 20.8322L10.5139 20.5012ZM10.5 20.3333V13.3333H8.5V20.3333H10.5ZM10.5 13.3333C10.5 12.781 10.9477 12.3333 11.5 12.3333V10.3333C9.84315 10.3333 8.5 11.6764 8.5 13.3333H10.5ZM11.5 12.3333H13.5V10.3333H11.5V12.3333ZM13.5 12.3333C14.0523 12.3333 14.5 12.781 14.5 13.3333H16.5C16.5 11.6764 15.1569 10.3333 13.5 10.3333V12.3333ZM14.5 13.3333V20.3333H16.5V13.3333H14.5ZM14.5 20.3333C14.5 20.3912 14.4952 20.4472 14.4861 20.5012L16.4585 20.8322C16.4859 20.6693 16.5 20.5025 16.5 20.3333H14.5ZM18.3333 19.6667H15.4723V21.6667H18.3333V19.6667ZM18.8047 19.4714C18.6797 19.5964 18.5101 19.6667 18.3333 19.6667V21.6667C19.0406 21.6667 19.7189 21.3857 20.219 20.8856L18.8047 19.4714ZM19 19C19 19.1768 18.9298 19.3464 18.8047 19.4714L20.219 20.8856C20.719 20.3855 21 19.7072 21 19H19ZM19 9.83333V19H21V9.83333H19ZM11.8861 4.78935L19.3861 10.6227L20.6139 9.04398L13.1139 3.21065L11.8861 4.78935Z" fill="#FFF9F8"/>
</svg>
