<svg width="24" height="24" viewBox="0 0 24 24" fill="none" xmlns="http://www.w3.org/2000/svg">
<path fill-rule="evenodd" clip-rule="evenodd" d="M2 6.99798C2 4.78999 3.791 3 6 3C7.21 3 8.266 3.55603 9 4.40503C9.733 3.55603 10.789 3 11.999 3C14.208 3 15.999 4.78999 15.999 6.99798C15.999 7.99498 15.674 8.87397 15.069 9.57397C16.144 10.207 16.865 11.324 16.992 12.628C17.8541 11.7659 18.792 10.8021 19.4637 10.1117C19.8384 9.72664 20.1303 9.42666 20.28 9.27698C20.595 8.96298 21.026 8.91502 21.374 9.05902C21.722 9.20302 21.999 9.55097 21.999 9.99597V19.99C21.999 20.88 20.91 21.338 20.28 20.708L17 17.397C16.804 19.422 15.077 21 12.999 21H6C3.791 21 2 19.199 2 16.992V12.994C2 11.784 2.52099 10.745 3.37099 10.012C2.52099 9.27902 2 8.20798 2 6.99798ZM8 6.99798C8 5.89399 7.104 4.99902 6 4.99902C4.895 4.99902 4 5.89399 4 6.99798C4 8.10198 4.895 8.99597 6 8.99597C7.104 8.99597 8 8.10098 8 6.99798ZM13.999 6.99798C13.999 5.89399 13.104 4.99902 11.999 4.99902C10.895 4.99902 10 5.89399 10 6.99798C10 8.10198 10.895 8.99597 11.999 8.99597C13.104 8.99597 13.999 8.10098 13.999 6.99798ZM10.424 13C10.424 12.7653 10.2337 12.575 9.99902 12.575C9.7643 12.575 9.57402 12.7653 9.57402 13V14.575H7.99902C7.7643 14.575 7.57402 14.7653 7.57402 15C7.57402 15.2347 7.7643 15.425 7.99902 15.425H9.57402V17C9.57402 17.2347 9.7643 17.425 9.99902 17.425C10.2337 17.425 10.424 17.2347 10.424 17V15.425H11.999C12.2337 15.425 12.424 15.2347 12.424 15C12.424 14.7653 12.2337 14.575 11.999 14.575H10.424V13Z" fill="#FFF9F8"/>
</svg>
