<svg width="24" height="24" viewBox="0 0 24 24" fill="none" xmlns="http://www.w3.org/2000/svg">
<path d="M3 10.2381C3 8.73904 4.21523 7.52381 5.71429 7.52381C7.21334 7.52381 8.42857 8.73904 8.42857 10.2381V13.8571C8.42857 15.3562 7.21334 16.5714 5.71429 16.5714C4.21523 16.5714 3 15.3562 3 13.8571V10.2381Z" fill="#FFF9F8"/>
<path d="M16.5714 10.2381C16.5714 8.73904 17.7867 7.52381 19.2857 7.52381C20.7848 7.52381 22 8.73904 22 10.2381V13.8571C22 15.3562 20.7848 16.5714 19.2857 16.5714C17.7867 16.5714 16.5714 15.3562 16.5714 13.8571V10.2381Z" fill="#FFF9F8"/>
<path d="M18.3193 11.545C18.3599 11.266 18.381 10.9807 18.381 10.6905C18.381 7.44252 15.748 4.80952 12.5 4.80952C9.25204 4.80952 6.61905 7.44252 6.61905 10.6905C6.61905 10.9807 6.64007 11.266 6.68068 11.545H4.85646C4.82545 11.2644 4.80952 10.9793 4.80952 10.6905C4.80952 6.44314 8.25267 3 12.5 3C16.7473 3 20.1905 6.44314 20.1905 10.6905C20.1905 10.9793 20.1746 11.2644 20.1435 11.545H18.3193Z" fill="#FFF9F8"/>
<path d="M12.9524 19.2858C16.0258 19.2605 18.5372 16.8777 18.7668 13.8571H20.1905V15.8684C19.1685 18.8928 16.3167 21.0742 12.9524 21.0954V19.2858Z" fill="#FFF9F8"/>
<path d="M15.6667 20.1905C15.6667 21.1898 14.8565 22 13.8571 22C12.8578 22 12.0476 21.1898 12.0476 20.1905C12.0476 19.1911 12.8578 18.381 13.8571 18.381C14.8565 18.381 15.6667 19.1911 15.6667 20.1905Z" fill="#FFF9F8"/>
</svg>
