<svg xmlns="http://www.w3.org/2000/svg" width="48" height="48" viewBox="0 0 48 48" fill="white">
	<g clip-path="url(#clip0_436_262)">
		<path d="M41.183 23.7899C40.5475 23.8305 40.1168 23.5057 39.6696 23.2454C33.564 19.6876 27.4584 16.125 21.3528 12.5647C21.101 12.4167 20.842 12.283 20.5243 12.111C13.7761 16.0462 7.02797 19.9813 0.0915125 24.0239C-0.0614803 22.5267 0.0256079 21.2349 0.0114855 19.9479C-0.00499062 18.6107 0.00677806 17.2711 0.0091318 15.9339C0.0091318 14.6326 0.016193 13.3312 0.0185467 12.0346C6.95736 7.98249 13.7879 3.99483 20.6326 0C27.4749 3.99483 34.3289 7.9992 41.183 12.0036V23.7899Z" fill="red" />
		<path d="M20.6752 23.7852C24.0364 25.7503 27.381 27.7036 30.9187 29.7714C27.4093 31.8846 24.027 33.8116 20.7082 35.7649C19.7926 35.4998 11.0673 30.3827 10.573 29.8383C10.9684 29.3416 18.1779 25.0149 20.6729 23.7875L20.6752 23.7852Z" fill="red" />
		<path d="M21.645 36.221C25.0649 34.2295 28.4167 32.2739 31.8202 30.292C34.9671 32.1282 38.0882 33.9477 41.3693 35.8604C37.8434 37.9211 34.454 39.903 31.114 41.8562C30.0313 41.5028 22.1698 36.8537 21.6473 36.221H21.645Z" fill="red" />
		<path d="M19.5431 36.4285C16.455 38.2361 13.3669 40.0437 10.1564 41.9229C6.81411 39.9983 3.44356 38.0475 0.0847778 36.0393C0.524926 35.4424 7.85446 31.0488 9.5162 30.3396C12.8091 32.257 16.1584 34.2103 19.5102 36.1611C19.5219 36.2495 19.5313 36.3402 19.5431 36.4285Z" fill="red" />
		<path d="M29.9772 42.5081C26.8867 44.3132 23.7963 46.1208 20.5787 48C17.4671 46.245 14.3531 44.3968 11.2344 42.563C11.2438 42.4698 11.2556 42.3767 11.265 42.2836C14.3766 40.4665 17.4906 38.6493 20.6258 36.8179C23.7515 38.6398 26.8491 40.445 29.9442 42.2478C29.9536 42.3337 29.963 42.4197 29.9748 42.5057L29.9772 42.5081Z" fill="red" />
		<path d="M11.2556 18.2908C14.1483 19.9813 16.9587 21.6242 19.955 23.3768C16.4244 25.4423 13.0585 27.4075 9.73269 29.3512C8.77001 29.0646 1.68762 24.8955 1.11566 24.2436C4.45797 22.1996 7.84735 20.2894 11.2532 18.2908H11.2556Z" fill="red" />
	</g>
	<defs>
		<clipPath id="clip0_436_262">
			<rect width="162.667" height="48" fill="white" />
		</clipPath>
	</defs>
</svg>
