<svg width="283" height="27" viewBox="0 0 283 27" fill="none" xmlns="http://www.w3.org/2000/svg">
<path d="M14.6094 19.3027C14.6094 18.8457 14.5391 18.4355 14.3984 18.0723C14.2695 17.6973 14.0234 17.3574 13.6602 17.0527C13.2969 16.7363 12.7871 16.4258 12.1309 16.1211C11.4746 15.8164 10.625 15.5 9.58203 15.1719C8.42188 14.7969 7.32031 14.375 6.27734 13.9062C5.24609 13.4375 4.33203 12.8926 3.53516 12.2715C2.75 11.6387 2.12891 10.9062 1.67188 10.0742C1.22656 9.24219 1.00391 8.27539 1.00391 7.17383C1.00391 6.10742 1.23828 5.14062 1.70703 4.27344C2.17578 3.39453 2.83203 2.64453 3.67578 2.02344C4.51953 1.39062 5.51562 0.904297 6.66406 0.564453C7.82422 0.224609 9.0957 0.0546875 10.4785 0.0546875C12.3652 0.0546875 14.0117 0.394531 15.418 1.07422C16.8242 1.75391 17.9141 2.68555 18.6875 3.86914C19.4727 5.05273 19.8652 6.40625 19.8652 7.92969H14.627C14.627 7.17969 14.4688 6.52344 14.1523 5.96094C13.8477 5.38672 13.3789 4.93555 12.7461 4.60742C12.125 4.2793 11.3398 4.11523 10.3906 4.11523C9.47656 4.11523 8.71484 4.25586 8.10547 4.53711C7.49609 4.80664 7.03906 5.17578 6.73438 5.64453C6.42969 6.10156 6.27734 6.61719 6.27734 7.19141C6.27734 7.625 6.38281 8.01758 6.59375 8.36914C6.81641 8.7207 7.14453 9.04883 7.57812 9.35352C8.01172 9.6582 8.54492 9.94531 9.17773 10.2148C9.81055 10.4844 10.543 10.748 11.375 11.0059C12.7695 11.4277 13.9941 11.9023 15.0488 12.4297C16.1152 12.957 17.0059 13.5488 17.7207 14.2051C18.4355 14.8613 18.9746 15.6055 19.3379 16.4375C19.7012 17.2695 19.8828 18.2129 19.8828 19.2676C19.8828 20.3809 19.666 21.377 19.2324 22.2559C18.7988 23.1348 18.1719 23.8789 17.3516 24.4883C16.5312 25.0977 15.5527 25.5605 14.416 25.877C13.2793 26.1934 12.0078 26.3516 10.6016 26.3516C9.33594 26.3516 8.08789 26.1875 6.85742 25.8594C5.62695 25.5195 4.50781 25.0098 3.5 24.3301C2.50391 23.6504 1.70703 22.7832 1.10938 21.7285C0.511719 20.6738 0.212891 19.4258 0.212891 17.9844H5.50391C5.50391 18.7812 5.62695 19.4551 5.87305 20.0059C6.11914 20.5566 6.46484 21.002 6.91016 21.3418C7.36719 21.6816 7.90625 21.9277 8.52734 22.0801C9.16016 22.2324 9.85156 22.3086 10.6016 22.3086C11.5156 22.3086 12.2656 22.1797 12.8516 21.9219C13.4492 21.6641 13.8887 21.3066 14.1699 20.8496C14.4629 20.3926 14.6094 19.877 14.6094 19.3027ZM25.877 0.40625H30.3418L36.916 19.1973L43.4902 0.40625H47.9551L38.709 26H35.123L25.877 0.40625ZM23.4688 0.40625H27.916L28.7246 18.7227V26H23.4688V0.40625ZM45.916 0.40625H50.3809V26H45.1074V18.7227L45.916 0.40625ZM65.7266 4.7832L58.7656 26H53.1582L62.668 0.40625H66.2363L65.7266 4.7832ZM71.5098 26L64.5312 4.7832L63.9688 0.40625H67.5723L77.1348 26H71.5098ZM71.1934 16.4727V20.6035H57.6758V16.4727H71.1934ZM79.5078 0.40625H89.0527C91.0098 0.40625 92.6914 0.699219 94.0977 1.28516C95.5156 1.87109 96.6055 2.73828 97.3672 3.88672C98.1289 5.03516 98.5098 6.44727 98.5098 8.12305C98.5098 9.49414 98.2754 10.6719 97.8066 11.6562C97.3496 12.6289 96.6992 13.4434 95.8555 14.0996C95.0234 14.7441 94.0449 15.2598 92.9199 15.6465L91.25 16.5254H82.9531L82.918 12.4121H89.0879C90.0137 12.4121 90.7812 12.248 91.3906 11.9199C92 11.5918 92.457 11.1348 92.7617 10.5488C93.0781 9.96289 93.2363 9.2832 93.2363 8.50977C93.2363 7.68945 93.084 6.98047 92.7793 6.38281C92.4746 5.78516 92.0117 5.32812 91.3906 5.01172C90.7695 4.69531 89.9902 4.53711 89.0527 4.53711H84.7812V26H79.5078V0.40625ZM93.8164 26L87.9805 14.5918L93.5527 14.5566L99.459 25.7539V26H93.8164ZM112.959 0.40625V26H107.703V0.40625H112.959ZM120.834 0.40625V4.53711H99.9512V0.40625H120.834ZM134.264 0.40625H138.729L145.303 19.1973L151.877 0.40625H156.342L147.096 26H143.51L134.264 0.40625ZM131.855 0.40625H136.303L137.111 18.7227V26H131.855V0.40625ZM154.303 0.40625H158.768V26H153.494V18.7227L154.303 0.40625ZM180.564 21.8867V26H166.941V21.8867H180.564ZM168.664 0.40625V26H163.391V0.40625H168.664ZM178.789 10.8301V14.8379H166.941V10.8301H178.789ZM180.547 0.40625V4.53711H166.941V0.40625H180.547ZM200.814 21.8867V26H187.191V21.8867H200.814ZM188.914 0.40625V26H183.641V0.40625H188.914ZM199.039 10.8301V14.8379H187.191V10.8301H199.039ZM200.797 0.40625V4.53711H187.191V0.40625H200.797ZM215.686 0.40625V26H210.43V0.40625H215.686ZM223.561 0.40625V4.53711H202.678V0.40625H223.561ZM232.174 0.40625V26H226.918V0.40625H232.174ZM257.943 0.40625V26H252.67L242.387 8.84375V26H237.113V0.40625H242.387L252.688 17.5801V0.40625H257.943ZM282.816 12.623V22.7656C282.418 23.2461 281.803 23.7676 280.971 24.3301C280.139 24.8809 279.066 25.3555 277.754 25.7539C276.441 26.1523 274.854 26.3516 272.99 26.3516C271.338 26.3516 269.832 26.082 268.473 25.543C267.113 24.9922 265.941 24.1895 264.957 23.1348C263.984 22.0801 263.234 20.791 262.707 19.2676C262.18 17.7324 261.916 15.9805 261.916 14.0117V12.4121C261.916 10.4434 262.168 8.69141 262.672 7.15625C263.188 5.62109 263.92 4.32617 264.869 3.27148C265.818 2.2168 266.949 1.41406 268.262 0.863281C269.574 0.3125 271.033 0.0371094 272.639 0.0371094C274.865 0.0371094 276.693 0.400391 278.123 1.12695C279.553 1.8418 280.643 2.83789 281.393 4.11523C282.154 5.38086 282.623 6.83398 282.799 8.47461H277.684C277.555 7.60742 277.309 6.85156 276.945 6.20703C276.582 5.5625 276.061 5.05859 275.381 4.69531C274.713 4.33203 273.846 4.15039 272.779 4.15039C271.9 4.15039 271.115 4.33203 270.424 4.69531C269.744 5.04688 269.17 5.56836 268.701 6.25977C268.232 6.95117 267.875 7.80664 267.629 8.82617C267.383 9.8457 267.26 11.0293 267.26 12.377V14.0117C267.26 15.3477 267.389 16.5312 267.646 17.5625C267.904 18.582 268.285 19.4434 268.789 20.1465C269.305 20.8379 269.938 21.3594 270.688 21.7109C271.438 22.0625 272.311 22.2383 273.307 22.2383C274.139 22.2383 274.83 22.168 275.381 22.0273C275.943 21.8867 276.395 21.7168 276.734 21.5176C277.086 21.3066 277.355 21.1074 277.543 20.9199V16.3848H272.727V12.623H282.816Z" fill="#F9FAFB"/>
</svg>
<svg width="741.854" height="105.404" viewBox="0 0 741.854 105.404" xmlns="http://www.w3.org/2000/svg"><g id="svgGroup" stroke-linecap="round" fill-rule="evenodd" font-size="9pt" stroke="#00000000" stroke-width="0.25mm" fill="#ffffff" style="stroke:#00000000;stroke-width:0.25mm;fill:#ffffff"><path d="M 409.731 80.115 L 420.958 16.35 L 392.727 62.893 L 382.59 62.893 L 369.837 15.914 L 358.61 80.115 L 348.8 80.115 L 362.207 3.815 L 376.268 3.815 L 389.13 52.429 L 417.906 3.815 L 433.493 3.815 L 420.086 80.115 L 409.731 80.115 Z M 113.033 56.68 L 108.891 80.115 L 99.081 80.115 L 105.294 46.216 Q 105.724 44.15 105.883 42.934 A 13.908 13.908 0 0 0 105.948 42.347 A 29.621 29.621 0 0 0 106.039 40.916 A 23.865 23.865 0 0 0 106.057 40.003 Q 106.057 35.752 103.604 33.245 A 8.232 8.232 0 0 0 98.418 30.799 A 11.286 11.286 0 0 0 97.228 30.738 A 11.794 11.794 0 0 0 93.32 31.441 Q 91.802 31.973 90.222 32.906 A 22.978 22.978 0 0 0 89.162 33.572 A 20.6 20.6 0 0 0 85.405 36.845 Q 83.862 38.534 82.438 40.709 A 39.609 39.609 0 0 0 81.423 42.347 Q 78.548 47.243 76.932 54.398 A 67.805 67.805 0 0 0 76.3 57.552 L 72.376 80.115 L 62.566 80.115 L 72.485 23.435 L 81.968 23.435 L 79.57 36.515 Q 82.84 29.975 88.453 26.051 Q 94.067 22.127 100.062 22.127 Q 106.82 22.127 110.962 26.215 A 15.767 15.767 0 0 1 115.567 35.747 A 20.099 20.099 0 0 1 115.649 36.515 A 34.945 34.945 0 0 1 119.777 30.493 A 27.541 27.541 0 0 1 124.751 25.942 Q 130.146 22.127 136.468 22.127 A 19.052 19.052 0 0 1 141.524 22.763 A 13.974 13.974 0 0 1 148.077 26.651 Q 152.382 31.174 152.382 37.714 A 29.378 29.378 0 0 1 152.305 39.755 Q 152.231 40.809 152.087 42.016 A 68.975 68.975 0 0 1 151.728 44.581 L 145.406 80.115 L 135.596 80.115 L 141.809 46.216 Q 142.239 44.15 142.398 42.934 A 13.908 13.908 0 0 0 142.463 42.347 A 29.621 29.621 0 0 0 142.554 40.916 A 23.865 23.865 0 0 0 142.572 40.003 Q 142.572 35.752 140.12 33.245 A 8.232 8.232 0 0 0 134.933 30.799 A 11.286 11.286 0 0 0 133.743 30.738 Q 130.146 30.738 125.895 33.463 Q 122.209 35.826 119.096 40.444 A 38.09 38.09 0 0 0 118.156 41.911 A 32.933 32.933 0 0 0 115.464 47.54 Q 114.426 50.319 113.666 53.597 A 64.305 64.305 0 0 0 113.033 56.68 Z M 59.405 8.72 L 54.064 17.222 Q 50.14 14.715 45.835 13.08 Q 41.676 11.501 36.144 11.447 A 40.298 40.298 0 0 0 35.752 11.445 A 24.231 24.231 0 0 0 31.475 11.8 Q 27.918 12.439 25.397 14.225 A 10.079 10.079 0 0 0 23.015 16.534 A 8.223 8.223 0 0 0 21.473 21.473 Q 21.473 25.506 24.253 28.613 A 17.352 17.352 0 0 0 26.191 30.433 Q 29.147 32.854 34.553 35.752 A 77.107 77.107 0 0 1 39.106 38.356 Q 43.077 40.822 45.616 43.219 A 24.664 24.664 0 0 1 48.543 46.487 Q 50.105 48.601 50.931 50.832 A 15.487 15.487 0 0 1 50.957 50.903 A 24.253 24.253 0 0 1 52.271 56.716 A 30.052 30.052 0 0 1 52.429 59.841 A 21.6 21.6 0 0 1 51.584 65.996 A 18.05 18.05 0 0 1 48.996 71.341 A 21.082 21.082 0 0 1 42.001 77.556 A 26.372 26.372 0 0 1 39.458 78.807 A 31.461 31.461 0 0 1 31.97 80.923 A 42.61 42.61 0 0 1 25.288 81.423 A 49.911 49.911 0 0 1 17.384 80.824 A 39.019 39.019 0 0 1 11.118 79.298 A 37.573 37.573 0 0 1 2.839 75.383 A 33.544 33.544 0 0 1 0 73.357 L 6.758 64.964 A 28.611 28.611 0 0 0 14.656 70.036 A 32.597 32.597 0 0 0 15.423 70.36 A 27.551 27.551 0 0 0 23.356 72.242 A 33.429 33.429 0 0 0 26.378 72.376 Q 33.463 72.376 37.659 69.27 A 9.818 9.818 0 0 0 41.786 62.162 A 12.583 12.583 0 0 0 41.856 60.822 A 12.865 12.865 0 0 0 41.329 57.093 A 11.502 11.502 0 0 0 40.602 55.263 Q 39.692 53.442 37.717 51.534 A 26.328 26.328 0 0 0 36.079 50.086 A 37.956 37.956 0 0 0 33.758 48.348 Q 31.091 46.491 27.256 44.343 A 125.771 125.771 0 0 0 26.705 44.036 Q 18.203 39.24 14.661 34.553 Q 11.162 29.925 11.119 22.745 A 29.91 29.91 0 0 1 11.118 22.563 A 19.441 19.441 0 0 1 11.947 16.786 A 16.525 16.525 0 0 1 14.334 11.99 A 19.898 19.898 0 0 1 20.279 6.58 A 25.461 25.461 0 0 1 23.326 5.014 A 29.741 29.741 0 0 1 30.801 2.921 A 39.376 39.376 0 0 1 36.624 2.507 A 48.145 48.145 0 0 1 43.551 2.984 A 37.398 37.398 0 0 1 49.05 4.197 Q 54.609 5.886 59.405 8.72 Z M 741.854 26.051 L 732.371 80.769 Q 731.37 86.528 729.569 90.688 A 26.8 26.8 0 0 1 728.392 93.086 Q 725.781 97.777 722.335 100.434 A 17.795 17.795 0 0 1 722.18 100.553 A 23.203 23.203 0 0 1 717.128 103.478 A 20.684 20.684 0 0 1 714.713 104.313 Q 710.789 105.403 706.974 105.403 A 29.989 29.989 0 0 1 701.118 104.86 A 21.359 21.359 0 0 1 694.384 102.351 A 34.363 34.363 0 0 1 689.292 98.72 A 27.564 27.564 0 0 1 685.937 95.266 L 693.567 89.598 Q 698.883 96.867 707.547 96.901 A 20.76 20.76 0 0 0 707.628 96.901 A 13.268 13.268 0 0 0 716.952 93.124 A 17.31 17.31 0 0 0 717.22 92.868 A 14.903 14.903 0 0 0 719.881 89.249 Q 721.987 85.358 723.106 79.134 L 724.959 68.452 Q 721.907 73.357 717.384 76.736 Q 712.86 80.115 707.192 80.115 Q 701.96 80.115 697.219 77.499 A 20.208 20.208 0 0 1 690.106 70.863 A 24.297 24.297 0 0 1 689.479 69.869 A 20.404 20.404 0 0 1 687.056 63.504 Q 686.518 60.92 686.484 57.95 A 35.131 35.131 0 0 1 686.482 57.552 A 40.342 40.342 0 0 1 687.654 47.633 A 32.636 32.636 0 0 1 691.169 39.022 Q 695.856 31.065 704.031 26.596 A 36.738 36.738 0 0 1 718.991 22.259 A 44.687 44.687 0 0 1 722.452 22.127 Q 728.883 22.127 733.788 23.435 Q 737.335 24.381 739.97 25.327 A 42.43 42.43 0 0 1 741.854 26.051 Z M 636.015 57.552 L 632.091 80.115 L 622.281 80.115 L 632.2 23.435 L 641.683 23.435 L 639.285 36.515 A 28.649 28.649 0 0 1 645.672 28.177 A 27.165 27.165 0 0 1 648.387 26.051 A 22.729 22.729 0 0 1 654.73 22.961 A 19.785 19.785 0 0 1 660.431 22.127 A 19.692 19.692 0 0 1 665.675 22.79 A 14.615 14.615 0 0 1 672.312 26.651 A 15.128 15.128 0 0 1 676.781 37.612 A 19.07 19.07 0 0 1 676.781 37.714 A 29.378 29.378 0 0 1 676.704 39.755 Q 676.63 40.809 676.486 42.016 A 68.975 68.975 0 0 1 676.127 44.581 L 669.914 80.115 L 660.104 80.115 L 666.099 46.216 Q 666.529 44.15 666.688 42.934 A 13.908 13.908 0 0 0 666.753 42.347 A 29.621 29.621 0 0 0 666.844 40.916 A 23.865 23.865 0 0 0 666.862 40.003 Q 666.862 35.752 664.41 33.245 A 8.198 8.198 0 0 0 659.613 30.858 A 11.475 11.475 0 0 0 657.924 30.738 A 12.069 12.069 0 0 0 654.268 31.34 Q 652.744 31.824 651.129 32.697 A 24.831 24.831 0 0 0 649.64 33.572 Q 645.765 36.03 642.422 40.824 A 41.045 41.045 0 0 0 641.41 42.347 Q 637.65 48.287 636.015 57.552 Z M 273.481 34.008 L 274.898 25.506 L 284.926 25.506 L 290.158 7.63 L 297.679 7.63 L 294.518 25.506 L 310.214 25.506 L 308.797 34.008 L 292.992 34.008 L 288.414 60.495 A 33.528 33.528 0 0 0 288.203 61.792 A 26.462 26.462 0 0 0 288.087 62.73 Q 287.978 63.765 287.978 64.637 A 10.241 10.241 0 0 0 288.248 67.06 A 6.906 6.906 0 0 0 290.267 70.578 A 7.806 7.806 0 0 0 294.264 72.53 A 11.062 11.062 0 0 0 296.262 72.703 A 17.982 17.982 0 0 0 298.582 72.562 Q 299.798 72.403 300.827 72.067 A 9.65 9.65 0 0 0 301.603 71.777 Q 303.783 70.85 305.527 69.869 L 306.726 78.371 Q 304.987 79.378 302.518 80.193 A 35.233 35.233 0 0 1 301.549 80.497 A 21.888 21.888 0 0 1 297.61 81.27 A 28.115 28.115 0 0 1 294.627 81.423 Q 290.594 81.423 286.833 79.788 Q 283.073 78.153 280.675 74.611 Q 278.277 71.068 278.277 65.4 Q 278.277 63.04 278.699 60.151 A 50.174 50.174 0 0 1 278.713 60.059 L 283.182 34.008 L 273.481 34.008 Z M 552.303 34.008 L 553.72 25.506 L 563.748 25.506 L 568.98 7.63 L 576.501 7.63 L 573.34 25.506 L 589.036 25.506 L 587.619 34.008 L 571.814 34.008 L 567.236 60.495 A 33.528 33.528 0 0 0 567.025 61.792 A 26.462 26.462 0 0 0 566.909 62.73 Q 566.8 63.765 566.8 64.637 A 10.241 10.241 0 0 0 567.07 67.06 A 6.906 6.906 0 0 0 569.089 70.578 A 7.806 7.806 0 0 0 573.086 72.53 A 11.062 11.062 0 0 0 575.084 72.703 A 17.982 17.982 0 0 0 577.404 72.562 Q 578.62 72.403 579.649 72.067 A 9.65 9.65 0 0 0 580.425 71.777 Q 582.605 70.85 584.349 69.869 L 585.548 78.371 Q 583.809 79.378 581.34 80.193 A 35.233 35.233 0 0 1 580.371 80.497 A 21.888 21.888 0 0 1 576.432 81.27 A 28.115 28.115 0 0 1 573.449 81.423 Q 569.416 81.423 565.656 79.788 Q 561.895 78.153 559.497 74.611 Q 557.099 71.068 557.099 65.4 Q 557.099 63.04 557.521 60.151 A 50.174 50.174 0 0 1 557.535 60.059 L 562.004 34.008 L 552.303 34.008 Z M 481.78 68.452 L 482.652 77.172 Q 480.18 78.326 476.712 79.386 A 78.018 78.018 0 0 1 474.368 80.061 A 38.398 38.398 0 0 1 468.03 81.198 A 49.13 49.13 0 0 1 463.25 81.423 A 28.302 28.302 0 0 1 456.28 80.597 A 23.179 23.179 0 0 1 450.551 78.317 Q 445.047 75.21 441.941 69.379 A 25.832 25.832 0 0 1 439.347 61.705 A 34.891 34.891 0 0 1 438.834 55.59 A 37.946 37.946 0 0 1 441.118 42.35 A 35.805 35.805 0 0 1 442.594 38.913 Q 446.355 31.283 453.277 26.705 A 27.593 27.593 0 0 1 465.796 22.316 A 34.842 34.842 0 0 1 469.463 22.127 A 27.881 27.881 0 0 1 474.285 22.523 Q 477.167 23.029 479.534 24.183 A 16.939 16.939 0 0 1 480.2 24.525 A 19.521 19.521 0 0 1 484.476 27.622 A 16.617 16.617 0 0 1 487.012 30.738 Q 489.41 34.553 489.41 38.913 A 20.909 20.909 0 0 1 488.978 43.281 Q 488.303 46.441 486.576 48.832 Q 483.742 52.756 479.273 54.882 A 36.202 36.202 0 0 1 470.271 57.765 A 40.376 40.376 0 0 1 469.627 57.879 A 63.067 63.067 0 0 1 463.042 58.648 A 53.24 53.24 0 0 1 459.762 58.751 Q 456.819 58.751 453.931 58.479 A 118.361 118.361 0 0 1 451.539 58.23 Q 450.088 58.063 448.862 57.879 Q 449.629 64.208 453.011 67.922 A 13.624 13.624 0 0 0 453.985 68.888 A 14.7 14.7 0 0 0 461.616 72.45 A 20.298 20.298 0 0 0 464.885 72.703 A 35.829 35.829 0 0 0 469.883 72.371 A 26.583 26.583 0 0 0 474.586 71.286 A 82.723 82.723 0 0 0 477.59 70.224 Q 479.059 69.67 480.329 69.116 A 42.59 42.59 0 0 0 481.78 68.452 Z M 538.242 68.452 L 539.114 77.172 Q 536.642 78.326 533.174 79.386 A 78.018 78.018 0 0 1 530.83 80.061 A 38.398 38.398 0 0 1 524.492 81.198 A 49.13 49.13 0 0 1 519.712 81.423 A 28.302 28.302 0 0 1 512.742 80.597 A 23.179 23.179 0 0 1 507.013 78.317 Q 501.509 75.21 498.403 69.379 A 25.832 25.832 0 0 1 495.809 61.705 A 34.891 34.891 0 0 1 495.296 55.59 A 37.946 37.946 0 0 1 497.58 42.35 A 35.805 35.805 0 0 1 499.056 38.913 Q 502.817 31.283 509.739 26.705 A 27.593 27.593 0 0 1 522.258 22.316 A 34.842 34.842 0 0 1 525.925 22.127 A 27.881 27.881 0 0 1 530.747 22.523 Q 533.629 23.029 535.996 24.183 A 16.939 16.939 0 0 1 536.662 24.525 A 19.521 19.521 0 0 1 540.938 27.622 A 16.617 16.617 0 0 1 543.474 30.738 Q 545.872 34.553 545.872 38.913 A 20.909 20.909 0 0 1 545.44 43.281 Q 544.765 46.441 543.038 48.832 Q 540.204 52.756 535.735 54.882 A 36.202 36.202 0 0 1 526.733 57.765 A 40.376 40.376 0 0 1 526.089 57.879 A 63.067 63.067 0 0 1 519.504 58.648 A 53.24 53.24 0 0 1 516.224 58.751 Q 513.281 58.751 510.393 58.479 A 118.361 118.361 0 0 1 508.001 58.23 Q 506.55 58.063 505.324 57.879 Q 506.091 64.208 509.473 67.922 A 13.624 13.624 0 0 0 510.447 68.888 A 14.7 14.7 0 0 0 518.078 72.45 A 20.298 20.298 0 0 0 521.347 72.703 A 35.829 35.829 0 0 0 526.345 72.371 A 26.583 26.583 0 0 0 531.048 71.286 A 82.723 82.723 0 0 0 534.052 70.224 Q 535.521 69.67 536.791 69.116 A 42.59 42.59 0 0 0 538.242 68.452 Z M 217.455 26.051 L 210.588 64.746 Q 210.493 65.219 210.44 65.814 A 14.439 14.439 0 0 0 210.425 66 A 18.926 18.926 0 0 0 210.371 67.27 A 21.065 21.065 0 0 0 210.37 67.471 Q 210.37 69.356 211.035 70.555 A 3.682 3.682 0 0 0 212.114 71.777 A 6.279 6.279 0 0 0 214.202 72.736 Q 215.075 72.966 216.104 73.016 A 12.058 12.058 0 0 0 216.692 73.03 L 213.313 80.66 A 19.27 19.27 0 0 1 209.906 80.378 Q 206.456 79.758 204.321 77.772 Q 201.777 75.406 201.316 70.885 A 20.791 20.791 0 0 1 201.214 68.779 Q 198.162 74.011 193.53 77.717 Q 188.897 81.423 182.684 81.423 Q 177.343 81.423 172.656 78.535 A 21.235 21.235 0 0 1 166.089 72.106 A 25.862 25.862 0 0 1 165.026 70.36 A 22.733 22.733 0 0 1 162.569 63.371 A 30.87 30.87 0 0 1 162.083 57.77 A 40.96 40.96 0 0 1 163.241 47.838 A 33.255 33.255 0 0 1 166.715 39.186 Q 171.348 31.174 179.523 26.651 Q 187.698 22.127 198.162 22.127 Q 204.028 22.127 208.579 23.215 A 31.104 31.104 0 0 1 209.443 23.435 A 95.188 95.188 0 0 1 212.811 24.406 Q 214.388 24.894 215.729 25.383 A 42.951 42.951 0 0 1 217.455 26.051 Z M 228.246 80.115 L 235.44 39.349 Q 235.535 38.877 235.588 38.281 A 14.439 14.439 0 0 0 235.603 38.096 A 18.926 18.926 0 0 0 235.657 36.826 A 21.065 21.065 0 0 0 235.658 36.624 Q 235.658 34.739 234.993 33.54 A 3.682 3.682 0 0 0 233.914 32.319 A 6.279 6.279 0 0 0 231.826 31.359 Q 230.953 31.13 229.924 31.079 A 12.058 12.058 0 0 0 229.336 31.065 L 232.715 23.435 Q 238.492 23.435 241.599 26.215 A 8.846 8.846 0 0 1 244.192 30.457 Q 244.609 31.898 244.687 33.629 A 18.086 18.086 0 0 1 244.705 34.444 L 244.705 36.624 A 34.323 34.323 0 0 1 247.091 31.819 Q 249.571 27.724 252.826 25.506 A 19.526 19.526 0 0 1 263.91 22.128 A 23.531 23.531 0 0 1 264.107 22.127 Q 266.149 22.127 267.721 22.38 A 14.254 14.254 0 0 1 268.413 22.509 Q 270.211 22.89 271.41 23.435 L 267.05 33.027 Q 265.742 32.482 264.325 32.264 Q 262.908 32.046 261.055 32.046 A 11.906 11.906 0 0 0 256.111 33.159 A 16.676 16.676 0 0 0 253.262 34.826 A 16.468 16.468 0 0 0 250.299 37.62 Q 249.093 39.053 247.974 40.904 A 38.005 38.005 0 0 0 246.286 44.036 A 42.878 42.878 0 0 0 244.285 49.024 Q 243.395 51.675 242.628 54.843 A 108.717 108.717 0 0 0 241.217 61.694 L 238.056 80.115 L 228.246 80.115 Z M 614.106 23.435 L 604.187 80.115 L 594.377 80.115 L 604.296 23.435 L 614.106 23.435 Z M 203.721 48.723 L 206.664 31.828 Q 204.593 31.174 202.359 30.793 A 24.121 24.121 0 0 0 200.39 30.546 Q 199.421 30.462 198.325 30.43 A 47.423 47.423 0 0 0 196.963 30.411 A 28.311 28.311 0 0 0 190.343 31.154 A 22.422 22.422 0 0 0 183.883 33.79 Q 178.324 37.169 175.218 43.11 A 27.334 27.334 0 0 0 172.305 52.91 A 33.784 33.784 0 0 0 172.111 56.571 A 23.827 23.827 0 0 0 172.424 60.544 Q 172.884 63.261 174.019 65.4 Q 175.926 68.997 178.978 70.85 A 12.817 12.817 0 0 0 182.629 72.386 A 11.346 11.346 0 0 0 185.3 72.703 A 12.423 12.423 0 0 0 192.95 70.065 A 15.761 15.761 0 0 0 193.475 69.651 Q 196.957 66.784 199.524 61.8 A 36.183 36.183 0 0 0 199.851 61.149 A 41.856 41.856 0 0 0 202.587 53.841 A 53.074 53.074 0 0 0 203.721 48.723 Z M 728.229 47.633 L 731.063 31.828 A 31.458 31.458 0 0 0 727.272 30.892 A 34.876 34.876 0 0 0 726.703 30.793 Q 724.736 30.465 722.205 30.419 A 46.304 46.304 0 0 0 721.362 30.411 A 26.382 26.382 0 0 0 713.88 31.438 A 22.594 22.594 0 0 0 708.445 33.845 Q 702.832 37.278 699.671 43.164 A 26.716 26.716 0 0 0 696.64 53.514 A 32.734 32.734 0 0 0 696.51 56.462 Q 696.51 60.814 698.011 63.922 A 12.289 12.289 0 0 0 698.417 64.692 A 13.861 13.861 0 0 0 700.965 67.952 A 12.113 12.113 0 0 0 703.377 69.706 Q 706.429 71.395 709.808 71.395 Q 713.95 71.395 717.656 68.452 Q 721.116 65.705 723.768 60.867 A 36.548 36.548 0 0 0 724.141 60.168 A 38.72 38.72 0 0 0 726.741 53.772 A 52.078 52.078 0 0 0 728.229 47.633 Z M 468.7 30.411 A 17.556 17.556 0 0 0 461.43 31.913 A 17.088 17.088 0 0 0 459.435 32.973 Q 455.293 35.534 452.623 39.949 A 26.238 26.238 0 0 0 449.588 47.443 A 31.57 31.57 0 0 0 449.08 50.031 Q 451.587 50.467 454.149 50.74 Q 456.71 51.012 459.762 51.012 A 53.634 53.634 0 0 0 465.112 50.762 Q 470.587 50.212 474.259 48.451 A 9.708 9.708 0 0 0 477.488 46.047 Q 479.105 44.161 479.484 41.429 A 12.75 12.75 0 0 0 479.6 39.676 A 8.454 8.454 0 0 0 476.921 33.438 A 11.288 11.288 0 0 0 476.603 33.136 A 10.221 10.221 0 0 0 471.714 30.705 A 14.722 14.722 0 0 0 468.7 30.411 Z M 525.162 30.411 A 17.556 17.556 0 0 0 517.892 31.913 A 17.088 17.088 0 0 0 515.897 32.973 Q 511.755 35.534 509.085 39.949 A 26.238 26.238 0 0 0 506.05 47.443 A 31.57 31.57 0 0 0 505.542 50.031 Q 508.049 50.467 510.611 50.74 Q 513.172 51.012 516.224 51.012 A 53.634 53.634 0 0 0 521.574 50.762 Q 527.049 50.212 530.721 48.451 A 9.708 9.708 0 0 0 533.95 46.047 Q 535.567 44.161 535.946 41.429 A 12.75 12.75 0 0 0 536.062 39.676 A 8.454 8.454 0 0 0 533.383 33.438 A 11.288 11.288 0 0 0 533.065 33.136 A 10.221 10.221 0 0 0 528.176 30.705 A 14.722 14.722 0 0 0 525.162 30.411 Z M 609.651 13.542 A 8.244 8.244 0 0 0 611.49 13.734 A 9.655 9.655 0 0 0 611.7 13.732 A 7.354 7.354 0 0 0 616.94 11.554 A 7.175 7.175 0 0 0 618.703 8.721 A 8.56 8.56 0 0 0 619.12 5.995 Q 619.12 3.597 617.54 1.799 A 4.85 4.85 0 0 0 616.889 1.182 Q 615.99 0.477 614.746 0.193 A 8.244 8.244 0 0 0 612.907 0 Q 609.637 0 607.457 2.126 Q 605.277 4.251 605.277 7.739 Q 605.277 10.137 606.858 11.936 A 4.85 4.85 0 0 0 607.508 12.552 Q 608.407 13.257 609.651 13.542 Z" vector-effect="non-scaling-stroke"/></g></svg>