<svg width="680.6" height="96.701" viewBox="0 0 680.6 96.701" xmlns="http://www.w3.org/2000/svg"><g id="svgGroup" stroke-linecap="round" fill-rule="evenodd" font-size="9pt" stroke="#00000000" stroke-width="0.25mm" fill="#ff6961" style="stroke:#00000000;stroke-width:0.25mm;fill:#ff6961"><path d="M 375.9 73.5 L 386.2 15 L 360.3 57.7 L 351 57.7 L 339.3 14.6 L 329 73.5 L 320 73.5 L 332.3 3.5 L 345.2 3.5 L 357 48.1 L 383.4 3.5 L 397.7 3.5 L 385.4 73.5 L 375.9 73.5 Z M 103.7 52 L 99.9 73.5 L 90.9 73.5 L 96.6 42.4 Q 96.995 40.505 97.14 39.389 A 12.759 12.759 0 0 0 97.2 38.85 A 27.175 27.175 0 0 0 97.283 37.538 A 21.894 21.894 0 0 0 97.3 36.7 Q 97.3 32.8 95.05 30.5 A 7.552 7.552 0 0 0 90.292 28.256 A 10.354 10.354 0 0 0 89.2 28.2 A 10.82 10.82 0 0 0 85.614 28.845 Q 84.222 29.333 82.773 30.189 A 21.08 21.08 0 0 0 81.8 30.8 A 18.899 18.899 0 0 0 78.353 33.803 Q 76.937 35.352 75.631 37.348 A 36.339 36.339 0 0 0 74.7 38.85 A 32.209 32.209 0 0 0 72.225 44.203 Q 71.276 46.826 70.58 49.906 A 62.206 62.206 0 0 0 70 52.8 L 66.4 73.5 L 57.4 73.5 L 66.5 21.5 L 75.2 21.5 L 73 33.5 A 25.988 25.988 0 0 1 78.352 26.182 A 24.264 24.264 0 0 1 81.15 23.9 A 20.966 20.966 0 0 1 86.055 21.316 A 16.849 16.849 0 0 1 91.8 20.3 A 16.652 16.652 0 0 1 96.278 20.872 A 12.497 12.497 0 0 1 101.8 24.05 A 14.465 14.465 0 0 1 106.025 32.795 A 18.44 18.44 0 0 1 106.1 33.5 Q 109.5 27.3 114.45 23.8 Q 119.4 20.3 125.2 20.3 A 17.478 17.478 0 0 1 129.838 20.884 A 12.82 12.82 0 0 1 135.85 24.45 A 14.17 14.17 0 0 1 139.8 34.6 A 26.953 26.953 0 0 1 139.729 36.473 Q 139.661 37.44 139.529 38.546 A 63.28 63.28 0 0 1 139.2 40.9 L 133.4 73.5 L 124.4 73.5 L 130.1 42.4 Q 130.495 40.505 130.64 39.389 A 12.759 12.759 0 0 0 130.7 38.85 A 27.175 27.175 0 0 0 130.783 37.538 A 21.894 21.894 0 0 0 130.8 36.7 Q 130.8 32.8 128.55 30.5 A 7.552 7.552 0 0 0 123.792 28.256 A 10.354 10.354 0 0 0 122.7 28.2 A 10.287 10.287 0 0 0 119.586 28.714 Q 117.633 29.333 115.5 30.7 Q 111.6 33.2 108.4 38.45 A 30.214 30.214 0 0 0 105.93 43.615 Q 104.545 47.323 103.7 52 Z M 54.5 8 L 49.6 15.8 Q 46 13.5 42.05 12 A 22.062 22.062 0 0 0 37.618 10.852 Q 35.525 10.525 33.159 10.502 A 36.967 36.967 0 0 0 32.8 10.5 A 22.23 22.23 0 0 0 28.876 10.826 Q 26.684 11.22 24.92 12.088 A 11.88 11.88 0 0 0 23.3 13.05 A 9.247 9.247 0 0 0 21.115 15.168 A 7.544 7.544 0 0 0 19.7 19.7 Q 19.7 23.4 22.25 26.25 Q 24.335 28.58 29.326 31.478 A 80.594 80.594 0 0 0 31.7 32.8 A 70.741 70.741 0 0 1 35.877 35.189 Q 37.813 36.391 39.377 37.575 A 29.814 29.814 0 0 1 41.85 39.65 Q 45.4 43 46.75 46.7 A 22.251 22.251 0 0 1 47.955 52.033 A 27.57 27.57 0 0 1 48.1 54.9 Q 48.1 61 44.95 65.45 A 19.341 19.341 0 0 1 38.533 71.152 A 24.194 24.194 0 0 1 36.2 72.3 A 28.864 28.864 0 0 1 29.33 74.241 A 39.092 39.092 0 0 1 23.2 74.7 A 45.79 45.79 0 0 1 15.948 74.15 A 35.797 35.797 0 0 1 10.2 72.75 A 34.471 34.471 0 0 1 2.604 69.158 A 30.775 30.775 0 0 1 0 67.3 L 6.2 59.6 A 26.248 26.248 0 0 0 13.446 64.254 A 29.906 29.906 0 0 0 14.15 64.55 A 25.276 25.276 0 0 0 21.427 66.277 A 30.669 30.669 0 0 0 24.2 66.4 A 24.095 24.095 0 0 0 28.356 66.063 Q 30.648 65.662 32.495 64.78 A 12.473 12.473 0 0 0 34.55 63.55 A 9.008 9.008 0 0 0 38.336 57.029 A 11.544 11.544 0 0 0 38.4 55.8 A 11.803 11.803 0 0 0 37.916 52.379 A 10.552 10.552 0 0 0 37.25 50.7 A 10.398 10.398 0 0 0 36.127 48.954 Q 35.479 48.126 34.602 47.279 A 24.154 24.154 0 0 0 33.1 45.95 A 34.822 34.822 0 0 0 30.971 44.356 Q 28.35 42.532 24.5 40.4 Q 16.973 36.154 13.683 32.001 A 16.732 16.732 0 0 1 13.45 31.7 Q 10.2 27.4 10.2 20.7 A 17.835 17.835 0 0 1 10.961 15.4 A 15.16 15.16 0 0 1 13.15 11 A 18.255 18.255 0 0 1 18.605 6.036 A 23.359 23.359 0 0 1 21.4 4.6 Q 26.7 2.3 33.6 2.3 A 44.17 44.17 0 0 1 39.955 2.738 A 34.31 34.31 0 0 1 45 3.85 Q 50.1 5.4 54.5 8 Z M 680.6 23.9 L 671.9 74.1 A 49.205 49.205 0 0 1 670.824 78.924 Q 670.172 81.253 669.33 83.2 A 24.587 24.587 0 0 1 668.25 85.4 Q 665.854 89.704 662.692 92.142 A 16.324 16.324 0 0 1 662.55 92.25 A 21.288 21.288 0 0 1 657.916 94.934 A 18.976 18.976 0 0 1 655.7 95.7 Q 652.1 96.7 648.6 96.7 A 27.513 27.513 0 0 1 643.227 96.202 A 19.596 19.596 0 0 1 637.05 93.9 A 31.525 31.525 0 0 1 632.378 90.569 A 25.288 25.288 0 0 1 629.3 87.4 L 636.3 82.2 A 17.072 17.072 0 0 0 640.793 86.538 Q 644.45 88.9 649.2 88.9 Q 654.2 88.9 658 85.2 A 13.673 13.673 0 0 0 660.441 81.88 Q 662.213 78.607 663.223 73.533 A 50.827 50.827 0 0 0 663.4 72.6 L 665.1 62.8 Q 662.3 67.3 658.15 70.4 Q 654 73.5 648.8 73.5 Q 644 73.5 639.65 71.1 A 18.539 18.539 0 0 1 633.125 65.012 A 22.29 22.29 0 0 1 632.55 64.1 A 18.719 18.719 0 0 1 630.326 58.261 Q 629.833 55.89 629.802 53.165 A 32.233 32.233 0 0 1 629.8 52.8 Q 629.8 43.1 634.1 35.8 Q 638.4 28.5 645.9 24.4 A 33.704 33.704 0 0 1 659.625 20.421 A 40.997 40.997 0 0 1 662.8 20.3 A 49.603 49.603 0 0 1 667.695 20.53 Q 670.251 20.784 672.479 21.318 A 29.309 29.309 0 0 1 673.2 21.5 Q 676.454 22.368 678.872 23.236 A 38.927 38.927 0 0 1 680.6 23.9 Z M 583.5 52.8 L 579.9 73.5 L 570.9 73.5 L 580 21.5 L 588.7 21.5 L 586.5 33.5 Q 589.6 27.5 594.85 23.9 Q 600.1 20.3 605.9 20.3 A 18.066 18.066 0 0 1 610.711 20.908 A 13.408 13.408 0 0 1 616.8 24.45 Q 620.9 28.6 620.9 34.6 A 26.953 26.953 0 0 1 620.829 36.473 Q 620.761 37.44 620.629 38.546 A 63.28 63.28 0 0 1 620.3 40.9 L 614.6 73.5 L 605.6 73.5 L 611.1 42.4 Q 611.495 40.505 611.64 39.389 A 12.759 12.759 0 0 0 611.7 38.85 A 27.175 27.175 0 0 0 611.783 37.538 A 21.894 21.894 0 0 0 611.8 36.7 Q 611.8 32.8 609.55 30.5 A 7.521 7.521 0 0 0 605.149 28.31 A 10.528 10.528 0 0 0 603.6 28.2 Q 600.691 28.2 597.366 29.997 A 22.78 22.78 0 0 0 596 30.8 A 20.18 20.18 0 0 0 592.299 33.864 Q 590.787 35.432 589.378 37.453 A 37.656 37.656 0 0 0 588.45 38.85 A 30.288 30.288 0 0 0 585.724 44.416 Q 584.677 47.203 583.954 50.499 A 57.014 57.014 0 0 0 583.5 52.8 Z M 250.9 31.2 L 252.2 23.4 L 261.4 23.4 L 266.2 7 L 273.1 7 L 270.2 23.4 L 284.6 23.4 L 283.3 31.2 L 268.8 31.2 L 264.6 55.5 A 30.76 30.76 0 0 0 264.407 56.69 A 24.277 24.277 0 0 0 264.3 57.55 Q 264.2 58.5 264.2 59.3 A 9.395 9.395 0 0 0 264.448 61.523 A 6.336 6.336 0 0 0 266.3 64.75 A 7.161 7.161 0 0 0 269.967 66.542 A 10.148 10.148 0 0 0 271.8 66.7 A 16.497 16.497 0 0 0 273.928 66.571 Q 275.044 66.425 275.988 66.117 A 8.853 8.853 0 0 0 276.7 65.85 Q 278.7 65 280.3 64.1 L 281.4 71.9 Q 279.805 72.824 277.54 73.571 A 32.324 32.324 0 0 1 276.65 73.85 Q 273.8 74.7 270.3 74.7 Q 266.6 74.7 263.15 73.2 Q 259.7 71.7 257.5 68.45 Q 255.571 65.6 255.333 61.25 A 22.945 22.945 0 0 1 255.3 60 Q 255.3 57.8 255.7 55.1 L 259.8 31.2 L 250.9 31.2 Z M 506.7 31.2 L 508 23.4 L 517.2 23.4 L 522 7 L 528.9 7 L 526 23.4 L 540.4 23.4 L 539.1 31.2 L 524.6 31.2 L 520.4 55.5 A 30.76 30.76 0 0 0 520.207 56.69 A 24.277 24.277 0 0 0 520.1 57.55 Q 520 58.5 520 59.3 A 9.395 9.395 0 0 0 520.248 61.523 A 6.336 6.336 0 0 0 522.1 64.75 A 7.161 7.161 0 0 0 525.767 66.542 A 10.148 10.148 0 0 0 527.6 66.7 A 16.497 16.497 0 0 0 529.728 66.571 Q 530.844 66.425 531.788 66.117 A 8.853 8.853 0 0 0 532.5 65.85 Q 534.5 65 536.1 64.1 L 537.2 71.9 Q 535.605 72.824 533.34 73.571 A 32.324 32.324 0 0 1 532.45 73.85 Q 529.6 74.7 526.1 74.7 Q 522.4 74.7 518.95 73.2 Q 515.5 71.7 513.3 68.45 Q 511.371 65.6 511.133 61.25 A 22.945 22.945 0 0 1 511.1 60 Q 511.1 57.8 511.5 55.1 L 515.6 31.2 L 506.7 31.2 Z M 442 62.8 L 442.8 70.8 A 33.903 33.903 0 0 1 440.325 71.829 Q 438.954 72.341 437.351 72.831 A 71.576 71.576 0 0 1 435.2 73.45 A 35.228 35.228 0 0 1 429.385 74.494 A 45.074 45.074 0 0 1 425 74.7 A 25.965 25.965 0 0 1 418.606 73.943 A 21.265 21.265 0 0 1 413.35 71.85 Q 408.3 69 405.45 63.65 A 23.699 23.699 0 0 1 403.07 56.61 A 32.01 32.01 0 0 1 402.6 51 A 34.813 34.813 0 0 1 404.695 38.853 A 32.849 32.849 0 0 1 406.05 35.7 Q 409.5 28.7 415.85 24.5 A 25.315 25.315 0 0 1 427.336 20.474 A 31.965 31.965 0 0 1 430.7 20.3 A 25.579 25.579 0 0 1 435.124 20.663 Q 437.768 21.128 439.939 22.186 A 15.541 15.541 0 0 1 440.55 22.5 A 17.909 17.909 0 0 1 444.474 25.341 A 15.245 15.245 0 0 1 446.8 28.2 Q 449 31.7 449 35.7 A 19.183 19.183 0 0 1 448.603 39.707 Q 447.984 42.607 446.4 44.8 Q 443.8 48.4 439.7 50.35 Q 435.6 52.3 430.85 53.1 A 57.86 57.86 0 0 1 424.809 53.806 A 48.844 48.844 0 0 1 421.8 53.9 Q 419.1 53.9 416.45 53.65 A 108.588 108.588 0 0 1 414.256 53.422 Q 413.258 53.307 412.375 53.184 A 59.872 59.872 0 0 1 411.8 53.1 Q 412.504 58.906 415.607 62.313 A 12.499 12.499 0 0 0 416.5 63.2 A 13.486 13.486 0 0 0 423.501 66.468 A 18.622 18.622 0 0 0 426.5 66.7 A 32.871 32.871 0 0 0 431.086 66.395 A 24.388 24.388 0 0 0 435.4 65.4 Q 438.386 64.405 440.668 63.41 A 39.073 39.073 0 0 0 442 62.8 Z M 493.8 62.8 L 494.6 70.8 A 33.903 33.903 0 0 1 492.125 71.829 Q 490.754 72.341 489.151 72.831 A 71.576 71.576 0 0 1 487 73.45 A 35.228 35.228 0 0 1 481.185 74.494 A 45.074 45.074 0 0 1 476.8 74.7 A 25.965 25.965 0 0 1 470.406 73.943 A 21.265 21.265 0 0 1 465.15 71.85 Q 460.1 69 457.25 63.65 A 23.699 23.699 0 0 1 454.87 56.61 A 32.01 32.01 0 0 1 454.4 51 A 34.813 34.813 0 0 1 456.495 38.853 A 32.849 32.849 0 0 1 457.85 35.7 Q 461.3 28.7 467.65 24.5 A 25.315 25.315 0 0 1 479.136 20.474 A 31.965 31.965 0 0 1 482.5 20.3 A 25.579 25.579 0 0 1 486.924 20.663 Q 489.568 21.128 491.739 22.186 A 15.541 15.541 0 0 1 492.35 22.5 A 17.909 17.909 0 0 1 496.274 25.341 A 15.245 15.245 0 0 1 498.6 28.2 Q 500.8 31.7 500.8 35.7 A 19.183 19.183 0 0 1 500.403 39.707 Q 499.784 42.607 498.2 44.8 Q 495.6 48.4 491.5 50.35 Q 487.4 52.3 482.65 53.1 A 57.86 57.86 0 0 1 476.609 53.806 A 48.844 48.844 0 0 1 473.6 53.9 Q 470.9 53.9 468.25 53.65 A 108.588 108.588 0 0 1 466.056 53.422 Q 465.058 53.307 464.175 53.184 A 59.872 59.872 0 0 1 463.6 53.1 Q 464.304 58.906 467.407 62.313 A 12.499 12.499 0 0 0 468.3 63.2 A 13.486 13.486 0 0 0 475.301 66.468 A 18.622 18.622 0 0 0 478.3 66.7 A 32.871 32.871 0 0 0 482.886 66.395 A 24.388 24.388 0 0 0 487.2 65.4 Q 490.186 64.405 492.468 63.41 A 39.073 39.073 0 0 0 493.8 62.8 Z M 199.5 23.9 L 193.2 59.4 Q 193.1 59.9 193.05 60.55 A 17.363 17.363 0 0 0 193.001 61.715 A 19.322 19.322 0 0 0 193 61.9 A 7.658 7.658 0 0 0 193.126 63.34 Q 193.448 65.023 194.6 65.85 A 5.761 5.761 0 0 0 196.516 66.73 Q 197.541 67 198.8 67 L 195.7 74 Q 191.953 74 189.434 72.724 A 8.601 8.601 0 0 1 187.45 71.35 A 8.157 8.157 0 0 1 185.324 67.995 Q 184.86 66.667 184.693 65.032 A 19.074 19.074 0 0 1 184.6 63.1 Q 181.8 67.9 177.55 71.3 Q 173.3 74.7 167.6 74.7 Q 162.7 74.7 158.4 72.05 A 19.481 19.481 0 0 1 152.375 66.152 A 23.727 23.727 0 0 1 151.4 64.55 A 20.856 20.856 0 0 1 149.146 58.139 A 28.321 28.321 0 0 1 148.7 53 Q 148.7 43.3 152.95 35.95 Q 157.2 28.6 164.7 24.45 A 33.311 33.311 0 0 1 177.558 20.513 A 41.372 41.372 0 0 1 181.8 20.3 A 49.31 49.31 0 0 1 186.685 20.53 Q 189.647 20.825 192.15 21.5 A 87.328 87.328 0 0 1 195.239 22.391 Q 196.686 22.839 197.917 23.287 A 39.405 39.405 0 0 1 199.5 23.9 Z M 209.4 73.5 L 216 36.1 Q 216.1 35.6 216.15 34.95 A 17.363 17.363 0 0 0 216.199 33.785 A 19.322 19.322 0 0 0 216.2 33.6 A 7.658 7.658 0 0 0 216.074 32.16 Q 215.752 30.478 214.6 29.65 A 5.761 5.761 0 0 0 212.684 28.77 Q 211.659 28.5 210.4 28.5 L 213.5 21.5 A 17.686 17.686 0 0 1 216.644 21.762 Q 219.713 22.317 221.65 24.05 Q 224.283 26.406 224.483 30.853 A 16.592 16.592 0 0 1 224.5 31.6 L 224.5 33.6 A 31.489 31.489 0 0 1 226.689 29.192 Q 228.04 26.961 229.641 25.337 A 15.524 15.524 0 0 1 231.95 23.4 Q 236.5 20.3 242.3 20.3 A 25.342 25.342 0 0 1 244.061 20.358 Q 244.893 20.416 245.615 20.532 A 13.077 13.077 0 0 1 246.25 20.65 A 18.344 18.344 0 0 1 247.41 20.934 Q 248.313 21.188 249 21.5 L 245 30.3 Q 243.8 29.8 242.5 29.6 A 16.005 16.005 0 0 0 241.286 29.464 Q 240.664 29.416 239.97 29.404 A 27.49 27.49 0 0 0 239.5 29.4 A 10.923 10.923 0 0 0 234.964 30.421 A 15.299 15.299 0 0 0 232.35 31.95 A 15.108 15.108 0 0 0 229.632 34.514 Q 227.664 36.851 225.95 40.4 A 39.337 39.337 0 0 0 224.115 44.976 Q 223.298 47.409 222.594 50.315 A 99.74 99.74 0 0 0 221.3 56.6 L 218.4 73.5 L 209.4 73.5 Z M 563.4 21.5 L 554.3 73.5 L 545.3 73.5 L 554.4 21.5 L 563.4 21.5 Z M 186.9 44.7 L 189.6 29.2 Q 187.7 28.6 185.65 28.25 Q 184.056 27.978 181.949 27.918 A 43.507 43.507 0 0 0 180.7 27.9 A 25.973 25.973 0 0 0 174.627 28.581 A 20.571 20.571 0 0 0 168.7 31 Q 163.6 34.1 160.75 39.55 Q 157.9 45 157.9 51.9 A 21.859 21.859 0 0 0 158.187 55.545 Q 158.609 58.038 159.65 60 Q 161.4 63.3 164.2 65 A 11.759 11.759 0 0 0 167.55 66.409 A 10.409 10.409 0 0 0 170 66.7 A 11.397 11.397 0 0 0 177.018 64.28 A 14.46 14.46 0 0 0 177.5 63.9 Q 180.9 61.1 183.35 56.1 Q 185.8 51.1 186.9 44.7 Z M 668.1 43.7 L 670.7 29.2 A 28.86 28.86 0 0 0 667.222 28.342 A 31.997 31.997 0 0 0 666.7 28.25 Q 664.6 27.9 661.8 27.9 A 24.204 24.204 0 0 0 654.935 28.842 A 20.729 20.729 0 0 0 649.95 31.05 Q 644.8 34.2 641.9 39.6 A 24.51 24.51 0 0 0 639.12 49.096 A 30.031 30.031 0 0 0 639 51.8 A 19.18 19.18 0 0 0 639.278 55.156 Q 639.619 57.073 640.377 58.644 A 11.274 11.274 0 0 0 640.75 59.35 A 12.716 12.716 0 0 0 643.088 62.341 A 11.112 11.112 0 0 0 645.3 63.95 Q 648.1 65.5 651.2 65.5 A 10.812 10.812 0 0 0 656.784 63.918 A 14.36 14.36 0 0 0 658.4 62.8 Q 661.8 60.1 664.35 55.2 A 35.523 35.523 0 0 0 666.735 49.332 A 47.778 47.778 0 0 0 668.1 43.7 Z M 430 27.9 A 16.106 16.106 0 0 0 423.331 29.278 A 15.677 15.677 0 0 0 421.5 30.25 Q 417.7 32.6 415.25 36.65 A 24.072 24.072 0 0 0 412.466 43.526 A 28.963 28.963 0 0 0 412 45.9 Q 414.3 46.3 416.65 46.55 A 43.727 43.727 0 0 0 419.436 46.752 A 56.357 56.357 0 0 0 421.8 46.8 Q 427.313 46.8 431.318 45.788 A 20.157 20.157 0 0 0 435.1 44.45 A 8.906 8.906 0 0 0 438.062 42.245 Q 440 39.985 440 36.4 A 7.756 7.756 0 0 0 437.543 30.677 A 10.356 10.356 0 0 0 437.25 30.4 A 9.377 9.377 0 0 0 432.765 28.169 A 13.507 13.507 0 0 0 430 27.9 Z M 481.8 27.9 A 16.106 16.106 0 0 0 475.131 29.278 A 15.677 15.677 0 0 0 473.3 30.25 Q 469.5 32.6 467.05 36.65 A 24.072 24.072 0 0 0 464.266 43.526 A 28.963 28.963 0 0 0 463.8 45.9 Q 466.1 46.3 468.45 46.55 A 43.727 43.727 0 0 0 471.236 46.752 A 56.357 56.357 0 0 0 473.6 46.8 Q 479.113 46.8 483.118 45.788 A 20.157 20.157 0 0 0 486.9 44.45 A 8.906 8.906 0 0 0 489.862 42.245 Q 491.8 39.985 491.8 36.4 A 7.756 7.756 0 0 0 489.343 30.677 A 10.356 10.356 0 0 0 489.05 30.4 A 9.377 9.377 0 0 0 484.565 28.169 A 13.507 13.507 0 0 0 481.8 27.9 Z M 561 12.6 Q 558.2 12.6 556.75 10.95 Q 555.3 9.3 555.3 7.1 A 8.315 8.315 0 0 1 555.605 4.791 A 6.358 6.358 0 0 1 557.3 1.95 A 6.799 6.799 0 0 1 561.923 0.008 A 8.947 8.947 0 0 1 562.3 0 Q 565.1 0 566.55 1.65 Q 568 3.3 568 5.5 A 7.853 7.853 0 0 1 567.618 8.001 A 6.583 6.583 0 0 1 566 10.6 A 6.747 6.747 0 0 1 561.192 12.598 A 8.857 8.857 0 0 1 561 12.6 Z" vector-effect="non-scaling-stroke"/></g></svg>