<svg xmlns="http://www.w3.org/2000/svg" width="163" height="48" viewBox="0 0 163 48" fill="none">
	<g clip-path="url(#clip0_436_262)">
		<path d="M41.183 23.7899C40.5475 23.8305 40.1168 23.5057 39.6696 23.2454C33.564 19.6876 27.4584 16.125 21.3528 12.5647C21.101 12.4167 20.842 12.283 20.5243 12.111C13.7761 16.0462 7.02797 19.9813 0.0915125 24.0239C-0.0614803 22.5267 0.0256079 21.2349 0.0114855 19.9479C-0.00499062 18.6107 0.00677806 17.2711 0.0091318 15.9339C0.0091318 14.6326 0.016193 13.3312 0.0185467 12.0346C6.95736 7.98249 13.7879 3.99483 20.6326 0C27.4749 3.99483 34.3289 7.9992 41.183 12.0036V23.7899Z" fill="black" />
		<path d="M62.214 16.4307C62.6871 14.9741 63.1602 13.5199 63.6403 12.0466H69.5741C69.8542 13.699 70.1343 15.3514 70.4473 17.19C70.7933 15.3538 71.104 13.7062 71.4147 12.061H74.604C73.9873 14.1981 73.4319 16.2874 72.7728 18.3433C72.3044 19.8023 72.022 21.2588 72.1138 22.7942C72.1655 23.6801 72.1232 24.5708 72.1232 25.533H68.7856C68.7856 24.5684 68.7503 23.6228 68.795 22.682C68.8585 21.3018 68.6608 19.9766 68.2536 18.6561C67.6793 16.7936 67.178 14.9072 66.5966 12.8585C66.0058 14.647 65.455 16.2587 64.949 17.8872C64.8713 18.1404 64.9678 18.4699 65.0478 18.7469C65.608 20.712 66.1871 22.6724 66.7567 24.6328C66.839 24.9146 66.9144 25.1988 67.0132 25.5474H63.4967C63.0731 23.9786 62.6423 22.3907 62.2116 20.8028C62.1598 20.8052 62.1057 20.8099 62.0539 20.8123V25.5617H58.5916V12.0562H62.0233V16.4283C62.0869 16.4283 62.1528 16.4331 62.2163 16.4354L62.214 16.4307Z" fill="black" />
		<path d="M83.64 12.0322H88.1192V25.5401H85.0593V17.8179C85.0052 17.8179 84.9511 17.8155 84.8969 17.8131C84.5745 20.3824 84.252 22.9541 83.9248 25.5592H81.6982C81.3663 23.0807 81.0345 20.6236 80.7049 18.1642H80.5237V25.5545H77.445V12.0633H81.9171C82.2019 13.9496 82.4867 15.8384 82.7715 17.7248H82.8539C83.1128 15.8504 83.3717 13.9783 83.64 12.0322Z" fill="black" />
		<path d="M20.6752 23.7852C24.0364 25.7503 27.381 27.7036 30.9187 29.7714C27.4093 31.8846 24.027 33.8116 20.7082 35.7649C19.7926 35.4998 11.0673 30.3827 10.573 29.8383C10.9684 29.3416 18.1779 25.0149 20.6729 23.7875L20.6752 23.7852Z" fill="black" />
		<path d="M21.645 36.221C25.0649 34.2295 28.4167 32.2739 31.8202 30.292C34.9671 32.1282 38.0882 33.9477 41.3693 35.8604C37.8434 37.9211 34.454 39.903 31.114 41.8562C30.0313 41.5028 22.1698 36.8537 21.6473 36.221H21.645Z" fill="black" />
		<path d="M19.5431 36.4285C16.455 38.2361 13.3669 40.0437 10.1564 41.9229C6.81411 39.9983 3.44356 38.0475 0.0847778 36.0393C0.524926 35.4424 7.85446 31.0488 9.5162 30.3396C12.8091 32.257 16.1584 34.2103 19.5102 36.1611C19.5219 36.2495 19.5313 36.3402 19.5431 36.4285Z" fill="black" />
		<path d="M29.9772 42.5081C26.8867 44.3132 23.7963 46.1208 20.5787 48C17.4671 46.245 14.3531 44.3968 11.2344 42.563C11.2438 42.4698 11.2556 42.3767 11.265 42.2836C14.3766 40.4665 17.4906 38.6493 20.6258 36.8179C23.7515 38.6398 26.8491 40.445 29.9442 42.2478C29.9536 42.3337 29.963 42.4197 29.9748 42.5057L29.9772 42.5081Z" fill="black" />
		<path d="M11.2556 18.2908C14.1483 19.9813 16.9587 21.6242 19.955 23.3768C16.4244 25.4423 13.0585 27.4075 9.73269 29.3512C8.77001 29.0646 1.68762 24.8955 1.11566 24.2436C4.45797 22.1996 7.84735 20.2894 11.2532 18.2908H11.2556Z" fill="black" />
		<path d="M95.79 11.9248C97.7577 12.0155 99.6595 12.0275 101.545 12.2137C102.898 12.3474 103.536 13.1092 103.746 14.475C103.814 14.9144 103.856 15.3609 103.859 15.8026C103.87 17.9732 103.873 20.1413 103.856 22.3118C103.852 22.8133 103.781 23.3171 103.706 23.8162C103.583 24.6328 103.089 25.1438 102.331 25.3921C102.056 25.4829 101.761 25.564 101.474 25.5664C99.6007 25.5808 97.7271 25.5736 95.7923 25.5736V11.9272L95.79 11.9248ZM100.281 14.635C99.8902 14.4965 99.6548 14.4105 99.3465 14.3007V23.3123C99.6572 23.181 99.8878 23.0855 100.187 22.9589C100.42 20.1938 100.295 17.4526 100.281 14.635Z" fill="black" />
		<path d="M150.058 23.4628C150.625 23.2097 150.59 22.7369 150.594 22.3047C150.608 21.1753 150.599 20.0458 150.599 18.914C150.599 16.6575 150.599 14.3986 150.599 12.0729H154.078C154.099 12.2997 154.137 12.529 154.137 12.7558C154.141 15.8194 154.144 18.883 154.134 21.9441C154.134 22.3572 154.099 22.7775 154.017 23.181C153.786 24.32 153.11 25.1176 152.03 25.4829C150.458 26.013 148.914 25.9414 147.471 25.0292C146.699 24.5421 146.219 23.8234 146.205 22.9041C146.146 19.3677 146.127 15.8313 146.096 12.295C146.096 12.24 146.134 12.1875 146.179 12.0681H149.641C149.655 12.3714 149.681 12.6866 149.681 13.0018C149.683 16.0343 149.674 19.0692 149.693 22.1017C149.695 22.5459 149.537 23.064 150.055 23.4604L150.058 23.4628Z" fill="black" />
		<path d="M132.292 25.5639H128.761V12.0274C130.239 12.0274 131.696 12.0298 133.153 12.0274C135.919 12.0202 136.561 13.5604 136.517 15.6425C136.512 15.91 136.517 16.1774 136.51 16.4448C136.467 17.6937 136.187 18.1068 135.039 18.5796C135.262 18.7109 135.467 18.8183 135.658 18.9473C136.149 19.2792 136.481 19.7424 136.491 20.3394C136.517 22.0562 136.5 23.7731 136.5 25.5472H133.203V19.8618C132.878 19.7162 132.649 19.6135 132.292 19.4511V25.5639ZM132.32 14.303V17.4262C132.64 17.2997 132.871 17.2066 133.137 17.1015V14.654C132.868 14.5394 132.638 14.4415 132.32 14.303Z" fill="black" />
		<path d="M145.322 18.8231C145.322 19.9215 145.343 21.0223 145.317 22.1207C145.266 24.3342 143.903 25.7048 141.721 25.7836C140.711 25.8194 139.725 25.7383 138.842 25.1819C137.997 24.6518 137.416 23.8996 137.376 22.88C137.289 20.7167 137.268 18.5485 137.235 16.3828C137.228 15.9386 137.263 15.4921 137.322 15.0528C137.569 13.2189 138.489 12.1683 140.259 11.9104C141.052 11.7958 141.909 11.8459 142.693 12.0178C144.326 12.376 145.244 13.5556 145.303 15.2581C145.346 16.4449 145.31 17.634 145.31 18.8231H145.317H145.322ZM141.453 14.0833C140.768 14.3937 140.794 14.8617 140.789 15.2486C140.768 17.6268 140.772 20.0027 140.796 22.381C140.801 22.7344 140.958 23.0878 141.045 23.4316C141.697 23.403 141.782 23.0448 141.784 22.6293C141.789 20.0743 141.796 17.517 141.775 14.962C141.773 14.685 141.58 14.4128 141.453 14.0833Z" fill="black" />
		<path d="M127.961 16.987H124.402V14.5037C124.145 14.3532 123.959 14.2434 123.792 14.1455C123.665 14.2458 123.55 14.2888 123.536 14.3556C123.451 14.7592 123.331 15.1651 123.326 15.571C123.305 17.7105 123.305 19.8524 123.326 21.9943C123.331 22.4527 123.444 22.9088 123.501 23.3219C124.138 23.532 124.36 23.2431 124.4 22.8109C124.475 22.0158 124.496 21.2135 124.541 20.3777C124.284 20.2918 124.077 20.2225 123.844 20.1437V18.3194H127.867V25.5426H125.718C125.631 25.3754 125.513 25.151 125.4 24.9337C125.318 24.948 125.249 24.9385 125.216 24.9695C123.432 26.5908 120.469 25.6333 119.937 23.2598C119.885 23.0282 119.822 22.7918 119.824 22.5578C119.852 19.8572 119.857 17.1542 119.949 14.4535C119.984 13.453 120.678 12.763 121.526 12.3427C123.164 11.5332 124.814 11.6001 126.405 12.517C127.219 12.9874 127.702 13.7276 127.82 14.6613C127.911 15.3943 127.916 16.1369 127.966 16.987H127.961Z" fill="black" />
		<path d="M117.185 25.5617H113.65C113.554 24.7451 113.462 23.9643 113.365 23.1453H112.224C112.13 23.9261 112.035 24.7093 111.937 25.545H108.335C108.933 21.0464 109.529 16.574 110.131 12.0586H115.166C115.837 16.5381 116.505 21.0058 117.188 25.5593L117.185 25.5617ZM112.817 15.6475C112.539 17.3405 112.181 19.0024 112.174 20.7073H113.321C113.149 18.9857 112.982 17.3166 112.817 15.6475Z" fill="black" />
		<path d="M50.0945 20.8002H53.2721C53.3286 21.6288 53.3827 22.4406 53.4345 23.2167C54.1571 23.4793 54.4278 23.3671 54.4984 22.7725C54.6114 21.8174 54.5172 20.9602 53.5663 20.3799C52.766 19.8904 52.0434 19.2696 51.2808 18.718C50.6006 18.2261 50.2264 17.5551 50.0428 16.7385C49.8215 15.7571 49.8662 14.7853 50.1251 13.8301C50.3794 12.8869 51.0878 12.3473 51.9681 12.0751C53.2321 11.6835 54.5054 11.7098 55.7694 12.1348C56.8074 12.4858 57.4829 13.1424 57.5771 14.2934C57.6241 14.8736 57.6477 15.4586 57.6853 16.0914H54.4584C54.0159 15.5207 54.7714 14.5513 53.8346 14.1597C53.1262 14.7662 53.072 15.7046 53.7122 16.3254C54.0065 16.6096 54.3736 16.8125 54.7055 17.0585C55.3905 17.5671 56.1319 18.0184 56.7391 18.6082C57.1628 19.0189 57.5182 19.5848 57.7065 20.1483C58.0878 21.2921 58.0525 22.4932 57.803 23.668C57.6194 24.5276 57.0122 25.0553 56.2519 25.3681C54.8067 25.9627 53.3333 25.9674 51.8834 25.3872C50.8077 24.9574 50.1934 24.1193 50.104 22.9492C50.0522 22.2711 50.0945 21.5858 50.0945 20.8002Z" fill="black" />
		<path d="M155.222 11.9319C157.065 12.0155 158.851 12.0011 160.612 12.2065C161.975 12.3641 162.525 13.0279 162.617 14.3818C162.702 15.6187 162.662 16.8675 162.617 18.1068C162.582 19.1001 161.977 19.6947 161.057 19.8881C160.322 20.0433 159.562 20.0696 158.734 20.1627V25.5329H155.222V11.9343V11.9319ZM158.771 14.3149V17.7868C159.089 17.677 159.322 17.5958 159.567 17.5122C159.828 16.5165 159.826 15.5709 159.583 14.5824C159.322 14.4964 159.084 14.4176 158.774 14.3149H158.771Z" fill="black" />
		<path d="M92.6642 17.3618H94.6413V19.8571H92.6454V22.8658H95.0321V25.6022H89.0959V12.0752H94.8155V14.666H92.6642V17.3618Z" fill="black" />
		<path d="M51.1678 29.8334V29.3845H161.172V29.8334H51.1678Z" fill="black" />
		<path d="M104.612 12.0515H108.043V25.5236H104.612V12.0515Z" fill="black" />
		<path d="M135.78 34.0312C135.279 35.4281 134.796 36.7748 134.243 38.3197C133.801 37.3121 133.44 36.4907 133.033 35.5594C132.624 36.4907 132.259 37.324 131.821 38.3174C131.28 36.8106 130.795 35.4615 130.286 34.0455C130.543 34.0193 130.731 33.9978 130.978 33.9715C131.27 34.781 131.555 35.5738 131.915 36.5671C132.322 35.6096 132.65 34.8431 133.033 33.9429C133.424 34.8526 133.749 35.6096 134.154 36.5528C134.485 35.6311 134.768 34.855 135.064 34.0312H135.78Z" fill="black" />
		<path d="M81.5734 33.9477C82.3196 34.7763 82.9245 35.4497 83.6118 36.2162C84.2661 35.4855 84.8969 34.7787 85.6524 33.9358V38.2267C85.4453 38.241 85.2782 38.2506 85.0216 38.2673V35.8843C84.9675 35.8604 84.9134 35.8365 84.8592 35.8102C84.4685 36.2305 84.0802 36.6531 83.5882 37.1856C83.2116 36.7009 82.8421 36.2281 82.4726 35.7529C82.3972 35.8007 82.3219 35.8484 82.2466 35.8962V38.2124H81.5734V33.9477Z" fill="black" />
		<path d="M147.014 38.2505V33.9883C147.654 33.9883 148.241 33.9333 148.815 34.0002C149.933 34.1291 150.712 35.015 150.733 36.0895C150.754 37.1569 149.996 38.0834 148.881 38.2362C148.283 38.3174 147.666 38.2505 147.014 38.2505ZM147.685 37.6703C148.558 37.7801 149.302 37.7443 149.775 36.9611C150.109 36.4071 150.069 35.5929 149.667 35.1201C149.133 34.4897 148.445 34.4252 147.685 34.6234V37.6703Z" fill="black" />
		<path d="M101.818 38.2745C101.514 38.2483 101.35 38.2339 101.145 38.2148V34.0146C102.187 34.8289 102.974 35.7721 104.014 36.6771V34.029H104.713V38.2936C103.724 37.3504 102.842 36.5075 101.818 35.5309V38.2769V38.2745Z" fill="black" />
		<path d="M91.9204 36.1254C91.9204 37.3814 91.0142 38.2793 89.7503 38.2793C88.5075 38.2793 87.5542 37.3432 87.5566 36.1231C87.5566 34.8981 88.5051 33.9692 89.7526 33.9692C91.0166 33.9692 91.9204 34.8694 91.9204 36.1254ZM91.1978 36.1016C91.186 35.1918 90.567 34.5232 89.7456 34.5328C88.9359 34.5423 88.2815 35.2396 88.2698 36.104C88.258 37.0065 88.9524 37.742 89.795 37.7157C90.6188 37.6919 91.2096 37.0089 91.2002 36.1016H91.1978Z" fill="black" />
		<path d="M124.016 36.1612C124.002 37.41 123.084 38.2911 121.811 38.2792C120.575 38.2672 119.626 37.305 119.652 36.0872C119.678 34.8598 120.629 33.9548 121.883 33.9692C123.14 33.9835 124.03 34.898 124.016 36.1612ZM123.293 36.1206C123.289 35.2061 122.684 34.5351 121.86 34.5327C121.02 34.5303 120.337 35.2801 120.365 36.1755C120.394 37.0447 121.062 37.7276 121.872 37.718C122.698 37.7061 123.298 37.0327 123.293 36.1206Z" fill="black" />
		<path d="M128.766 38.2267C128.519 38.2435 128.323 38.2578 128.097 38.2745C127.9 37.933 127.711 37.6059 127.509 37.2549H126.532C126.504 37.582 126.48 37.871 126.452 38.2148H125.838V34.0242C126.49 34.0242 127.137 33.9239 127.742 34.0457C128.891 34.2773 129.321 35.6216 128.608 36.5696C128.502 36.7105 128.37 36.8275 128.224 36.9851C128.394 37.3767 128.568 37.7754 128.766 38.2291V38.2267ZM128.156 35.1154C127.777 34.497 127.21 34.4612 126.549 34.5901V36.5935C127.933 36.7176 128.29 36.3786 128.156 35.1154Z" fill="black" />
		<path d="M142.017 33.9716C142.613 33.9716 143.051 33.9716 143.488 33.9716C144.197 33.974 144.774 34.2558 145.039 34.9315C145.31 35.6144 145.214 36.2735 144.625 36.7916C144.562 36.8466 144.517 36.9206 144.442 37.0113C144.616 37.3814 144.79 37.7539 145.002 38.2028C144.736 38.2291 144.526 38.2506 144.315 38.2697C144.103 37.902 143.914 37.5725 143.717 37.2334H142.787C142.74 37.5629 142.695 37.8757 142.643 38.2267H142.013C142.013 37.5128 142.013 36.8084 142.013 36.1063C142.013 35.4043 142.013 34.7524 142.013 33.9692L142.017 33.9716ZM142.775 34.5901V36.5935C144.162 36.7152 144.519 36.3738 144.38 35.113C143.999 34.4946 143.432 34.4587 142.775 34.5877V34.5901Z" fill="black" />
		<path d="M110.303 34.5589C110.15 34.7021 110.047 34.8 109.952 34.8908C108.408 34.2675 107.968 34.5445 107.422 35.2107C107.008 35.7169 107.102 36.7174 107.526 37.2022C108.008 37.7538 108.726 37.8349 109.649 37.4099C109.67 37.3025 109.712 37.1616 109.719 37.0207C109.726 36.8774 109.698 36.7342 109.682 36.5503C109.406 36.5145 109.155 36.4811 108.841 36.4405C108.83 36.3044 108.818 36.173 108.801 35.9844H110.355V37.6463C109.385 38.5179 107.9 38.5226 107.043 37.6463C106.255 36.8392 106.229 35.4973 106.984 34.6687C107.792 33.7828 109.235 33.704 110.305 34.5565L110.303 34.5589Z" fill="black" />
		<path d="M63.1436 38.2434H62.3622C61.9173 37.5461 61.4772 36.856 60.9947 36.1015C60.7358 36.4023 60.5475 36.6173 60.3804 36.8107C60.3592 37.3002 60.3403 37.7395 60.3192 38.2243H59.726V34.0384C59.8955 34.0193 60.0602 34.0026 60.305 33.9763C60.3309 34.5303 60.3545 35.0532 60.3898 35.7767C60.9758 35.1368 61.4701 34.5948 61.995 34.0217H62.7929C62.3316 34.5709 61.9385 35.0413 61.4937 35.569C62.0303 36.4406 62.567 37.3121 63.1436 38.2434Z" fill="black" />
		<path d="M74.331 37.2023C74.2957 37.6249 74.2721 37.9115 74.2439 38.2314H73.6484V33.9787C74.2297 33.9787 74.7805 33.9357 75.3219 33.9883C76.1881 34.0718 76.7412 34.7452 76.7294 35.6168C76.7176 36.4859 76.1504 37.1092 75.2654 37.1975C74.9806 37.2262 74.6887 37.2023 74.331 37.2023ZM74.3404 34.5924V36.5862C74.9594 36.7056 75.5573 36.7343 75.8444 36.154C75.9974 35.8436 75.9951 35.3207 75.835 35.0126C75.5384 34.4372 74.9453 34.473 74.3404 34.5924Z" fill="black" />
		<path d="M64.6548 34.0097H67.2674V34.5112H65.3586V35.7409H67.1097V36.271C66.5166 36.2996 65.947 36.3283 65.335 36.3593V37.6893H67.2251C67.2627 37.8851 67.2886 38.0141 67.3263 38.2147H64.6501V34.0073L64.6548 34.0097Z" fill="black" />
		<path d="M71.869 34.0312C71.876 34.1816 71.8831 34.2915 71.8949 34.5064H69.9318V35.7098C70.5062 35.7385 71.0758 35.7648 71.676 35.7934C71.6948 35.9438 71.7089 36.0537 71.7372 36.271H69.9389V37.7108H71.8972C71.8807 37.9568 71.8737 38.069 71.8643 38.2266H69.2493V34.0288H71.8666L71.869 34.0312Z" fill="black" />
		<path d="M137.616 37.4315C137.477 37.7061 137.359 37.9449 137.218 38.2243H136.488C137.147 36.8107 137.781 35.4496 138.496 33.9119C139.214 35.4401 139.857 36.8059 140.532 38.2386H139.8C139.675 37.995 139.541 37.7372 139.383 37.4315H137.613H137.616ZM138.51 35.3923C138.263 35.9248 138.077 36.3236 137.856 36.7987H139.122C138.927 36.3522 138.757 35.9582 138.508 35.3923H138.51Z" fill="black" />
		<path d="M95.0133 36.7463C95.4628 35.7267 95.8324 34.8933 96.216 34.0218H96.9716C96.329 35.4402 95.71 36.8012 95.0109 38.3414C94.3213 36.8299 93.707 35.4808 93.0526 34.0457C93.3374 34.0194 93.5445 34.0027 93.7752 33.9812C94.1777 34.8814 94.5614 35.741 95.0109 36.7463H95.0133Z" fill="black" />
		<path d="M115.46 33.9978H117.943C117.964 34.1435 117.983 34.2748 118.012 34.4849C117.376 34.5136 116.776 34.5422 116.131 34.5733V35.889C116.668 35.9176 117.181 35.9439 117.731 35.9725V36.4716H116.122V38.2314C115.856 38.2433 115.695 38.2505 115.458 38.2601V33.9978H115.46Z" fill="black" />
		<path d="M98.5085 38.2505V34.0336C98.7063 34.0169 98.8687 34.0026 99.0946 33.9858V38.2123C98.9275 38.2242 98.7463 38.2362 98.5085 38.2529V38.2505Z" fill="black" />
		<path d="M155.638 34.0265C155.843 34.0122 156.01 34.0026 156.236 33.9883V36.9563C156.015 36.9396 155.853 36.9301 155.638 36.9134V34.0265Z" fill="black" />
		<path d="M155.926 38.6734C155.733 38.3295 155.53 38.1289 155.561 37.9761C155.594 37.8113 155.843 37.692 156.001 37.5535C156.137 37.7135 156.375 37.8663 156.385 38.0334C156.394 38.1886 156.163 38.3606 155.926 38.6734Z" fill="black" />
	</g>
	<defs>
		<clipPath id="clip0_436_262">
			<rect width="162.667" height="48" fill="white" />
		</clipPath>
	</defs>
</svg>
