<svg width="283" height="27" viewBox="0 0 283 27" fill="none" xmlns="http://www.w3.org/2000/svg">
<path d="M14.6094 19.3027C14.6094 18.8457 14.5391 18.4355 14.3984 18.0723C14.2695 17.6973 14.0234 17.3574 13.6602 17.0527C13.2969 16.7363 12.7871 16.4258 12.1309 16.1211C11.4746 15.8164 10.625 15.5 9.58203 15.1719C8.42188 14.7969 7.32031 14.375 6.27734 13.9062C5.24609 13.4375 4.33203 12.8926 3.53516 12.2715C2.75 11.6387 2.12891 10.9062 1.67188 10.0742C1.22656 9.24219 1.00391 8.27539 1.00391 7.17383C1.00391 6.10742 1.23828 5.14062 1.70703 4.27344C2.17578 3.39453 2.83203 2.64453 3.67578 2.02344C4.51953 1.39062 5.51562 0.904297 6.66406 0.564453C7.82422 0.224609 9.0957 0.0546875 10.4785 0.0546875C12.3652 0.0546875 14.0117 0.394531 15.418 1.07422C16.8242 1.75391 17.9141 2.68555 18.6875 3.86914C19.4727 5.05273 19.8652 6.40625 19.8652 7.92969H14.627C14.627 7.17969 14.4688 6.52344 14.1523 5.96094C13.8477 5.38672 13.3789 4.93555 12.7461 4.60742C12.125 4.2793 11.3398 4.11523 10.3906 4.11523C9.47656 4.11523 8.71484 4.25586 8.10547 4.53711C7.49609 4.80664 7.03906 5.17578 6.73438 5.64453C6.42969 6.10156 6.27734 6.61719 6.27734 7.19141C6.27734 7.625 6.38281 8.01758 6.59375 8.36914C6.81641 8.7207 7.14453 9.04883 7.57812 9.35352C8.01172 9.6582 8.54492 9.94531 9.17773 10.2148C9.81055 10.4844 10.543 10.748 11.375 11.0059C12.7695 11.4277 13.9941 11.9023 15.0488 12.4297C16.1152 12.957 17.0059 13.5488 17.7207 14.2051C18.4355 14.8613 18.9746 15.6055 19.3379 16.4375C19.7012 17.2695 19.8828 18.2129 19.8828 19.2676C19.8828 20.3809 19.666 21.377 19.2324 22.2559C18.7988 23.1348 18.1719 23.8789 17.3516 24.4883C16.5312 25.0977 15.5527 25.5605 14.416 25.877C13.2793 26.1934 12.0078 26.3516 10.6016 26.3516C9.33594 26.3516 8.08789 26.1875 6.85742 25.8594C5.62695 25.5195 4.50781 25.0098 3.5 24.3301C2.50391 23.6504 1.70703 22.7832 1.10938 21.7285C0.511719 20.6738 0.212891 19.4258 0.212891 17.9844H5.50391C5.50391 18.7812 5.62695 19.4551 5.87305 20.0059C6.11914 20.5566 6.46484 21.002 6.91016 21.3418C7.36719 21.6816 7.90625 21.9277 8.52734 22.0801C9.16016 22.2324 9.85156 22.3086 10.6016 22.3086C11.5156 22.3086 12.2656 22.1797 12.8516 21.9219C13.4492 21.6641 13.8887 21.3066 14.1699 20.8496C14.4629 20.3926 14.6094 19.877 14.6094 19.3027ZM25.877 0.40625H30.3418L36.916 19.1973L43.4902 0.40625H47.9551L38.709 26H35.123L25.877 0.40625ZM23.4688 0.40625H27.916L28.7246 18.7227V26H23.4688V0.40625ZM45.916 0.40625H50.3809V26H45.1074V18.7227L45.916 0.40625ZM65.7266 4.7832L58.7656 26H53.1582L62.668 0.40625H66.2363L65.7266 4.7832ZM71.5098 26L64.5312 4.7832L63.9688 0.40625H67.5723L77.1348 26H71.5098ZM71.1934 16.4727V20.6035H57.6758V16.4727H71.1934ZM79.5078 0.40625H89.0527C91.0098 0.40625 92.6914 0.699219 94.0977 1.28516C95.5156 1.87109 96.6055 2.73828 97.3672 3.88672C98.1289 5.03516 98.5098 6.44727 98.5098 8.12305C98.5098 9.49414 98.2754 10.6719 97.8066 11.6562C97.3496 12.6289 96.6992 13.4434 95.8555 14.0996C95.0234 14.7441 94.0449 15.2598 92.9199 15.6465L91.25 16.5254H82.9531L82.918 12.4121H89.0879C90.0137 12.4121 90.7812 12.248 91.3906 11.9199C92 11.5918 92.457 11.1348 92.7617 10.5488C93.0781 9.96289 93.2363 9.2832 93.2363 8.50977C93.2363 7.68945 93.084 6.98047 92.7793 6.38281C92.4746 5.78516 92.0117 5.32812 91.3906 5.01172C90.7695 4.69531 89.9902 4.53711 89.0527 4.53711H84.7812V26H79.5078V0.40625ZM93.8164 26L87.9805 14.5918L93.5527 14.5566L99.459 25.7539V26H93.8164ZM112.959 0.40625V26H107.703V0.40625H112.959ZM120.834 0.40625V4.53711H99.9512V0.40625H120.834ZM134.264 0.40625H138.729L145.303 19.1973L151.877 0.40625H156.342L147.096 26H143.51L134.264 0.40625ZM131.855 0.40625H136.303L137.111 18.7227V26H131.855V0.40625ZM154.303 0.40625H158.768V26H153.494V18.7227L154.303 0.40625ZM180.564 21.8867V26H166.941V21.8867H180.564ZM168.664 0.40625V26H163.391V0.40625H168.664ZM178.789 10.8301V14.8379H166.941V10.8301H178.789ZM180.547 0.40625V4.53711H166.941V0.40625H180.547ZM200.814 21.8867V26H187.191V21.8867H200.814ZM188.914 0.40625V26H183.641V0.40625H188.914ZM199.039 10.8301V14.8379H187.191V10.8301H199.039ZM200.797 0.40625V4.53711H187.191V0.40625H200.797ZM215.686 0.40625V26H210.43V0.40625H215.686ZM223.561 0.40625V4.53711H202.678V0.40625H223.561ZM232.174 0.40625V26H226.918V0.40625H232.174ZM257.943 0.40625V26H252.67L242.387 8.84375V26H237.113V0.40625H242.387L252.688 17.5801V0.40625H257.943ZM282.816 12.623V22.7656C282.418 23.2461 281.803 23.7676 280.971 24.3301C280.139 24.8809 279.066 25.3555 277.754 25.7539C276.441 26.1523 274.854 26.3516 272.99 26.3516C271.338 26.3516 269.832 26.082 268.473 25.543C267.113 24.9922 265.941 24.1895 264.957 23.1348C263.984 22.0801 263.234 20.791 262.707 19.2676C262.18 17.7324 261.916 15.9805 261.916 14.0117V12.4121C261.916 10.4434 262.168 8.69141 262.672 7.15625C263.188 5.62109 263.92 4.32617 264.869 3.27148C265.818 2.2168 266.949 1.41406 268.262 0.863281C269.574 0.3125 271.033 0.0371094 272.639 0.0371094C274.865 0.0371094 276.693 0.400391 278.123 1.12695C279.553 1.8418 280.643 2.83789 281.393 4.11523C282.154 5.38086 282.623 6.83398 282.799 8.47461H277.684C277.555 7.60742 277.309 6.85156 276.945 6.20703C276.582 5.5625 276.061 5.05859 275.381 4.69531C274.713 4.33203 273.846 4.15039 272.779 4.15039C271.9 4.15039 271.115 4.33203 270.424 4.69531C269.744 5.04688 269.17 5.56836 268.701 6.25977C268.232 6.95117 267.875 7.80664 267.629 8.82617C267.383 9.8457 267.26 11.0293 267.26 12.377V14.0117C267.26 15.3477 267.389 16.5312 267.646 17.5625C267.904 18.582 268.285 19.4434 268.789 20.1465C269.305 20.8379 269.938 21.3594 270.688 21.7109C271.438 22.0625 272.311 22.2383 273.307 22.2383C274.139 22.2383 274.83 22.168 275.381 22.0273C275.943 21.8867 276.395 21.7168 276.734 21.5176C277.086 21.3066 277.355 21.1074 277.543 20.9199V16.3848H272.727V12.623H282.816Z" fill="#F9FAFB"/>
</svg>
