<svg xmlns="http://www.w3.org/2000/svg" viewBox="0 0 245.28 275"><defs><style>.cls-1{fill:#202a5d;}.cls-2{fill:#004f9f;}.cls-3{fill:#fff;}.cls-4{fill:#d3ddf2;}</style></defs><g id="Layer_2" data-name="Layer 2"><g id="Layer_1-2" data-name="Layer 1"><path class="cls-1" d="M36.4,9.43a31.35,31.35,0,0,0-9,22V184H180.88a30.44,30.44,0,0,0,18.5-6.25,32.73,32.73,0,0,0,2.77-2.35l0,0Z"/><path class="cls-2" d="M202.55,175a30.53,30.53,0,0,0,9-21.67V0H58.84A31.44,31.44,0,0,0,36.6,9.21l-.12.13-.08.09L202.19,175.31c.12-.11.25-.22.36-.34"/><path class="cls-3" d="M43,15.82A22.33,22.33,0,0,1,46.4,13a22.08,22.08,0,0,1,12.44-3.8H202.32V153.3a21.3,21.3,0,0,1-6.22,15.11l-.43.38,3.4,3.4.37-.33a26.11,26.11,0,0,0,7.68-18.56V4.4H58.84a26.92,26.92,0,0,0-19.22,8s-.06.08-.1.12l3.4,3.4a1.71,1.71,0,0,1,.11-.14"/><polygon class="cls-1" points="216.42 275 216.51 224.7 203.73 224.7 203.76 213.53 245.28 213.53 245.25 224.7 232.48 224.7 232.38 275 216.42 275"/><path class="cls-1" d="M7.76,275a8.57,8.57,0,0,1-4.58-1.64,7.28,7.28,0,0,1-3-3.95,4.61,4.61,0,0,1-.15-2.09H0l.08-48.91h0a4.61,4.61,0,0,1,.19-1.15,2.67,2.67,0,0,1,.44-1,4,4,0,0,1,.69-1.14,5.06,5.06,0,0,1,4.06-1.63H33.42A8.47,8.47,0,0,1,38,215.16a7.19,7.19,0,0,1,3,4,4.5,4.5,0,0,1,.15,2.1h0V231H26V224.7H15.44l-.08,39.12H26l0-17-7-8.16H41l.2.7-.07,30.74h0a.57.57,0,0,1,0,.13,3.83,3.83,0,0,1-.92,3.12,5,5,0,0,1-4,1.64Z"/><path class="cls-1" d="M84.24,259.92l5.65-21.24L95.8,262.4h0l-.34-2.49ZM98,269.41,99.4,275h14.37L96.32,213.53H82L64.29,275h16l1.48-5.59Z"/><path class="cls-1" d="M149.11,275a8.57,8.57,0,0,1-4.58-1.64,7.26,7.26,0,0,1-3-3.95,4.59,4.59,0,0,1-.14-2.09h0l.08-48.91h0a5.12,5.12,0,0,1,.19-1.15,3.06,3.06,0,0,1,.44-1,4,4,0,0,1,.7-1.14,5.06,5.06,0,0,1,4.06-1.63l29.56,0v11.18l-19.61,0,0,14h15.85l-.06,11.18H156.74l0,14h19.56l0,11.18Z"/><path class="cls-4" d="M104.78,124.58h46.74L112.9,86h-9.27l34.58,34.39H107.36c-13.85,0-14.08-11.09-14.08-11.09V66.34L88.94,62v43.27S87.51,124.58,104.78,124.58Z"/><path class="cls-4" d="M96.26,145.11H172l-7.62-7.63H104.78c-15,0-28.75.72-28.75-24.87,0-29.93.16-63.36.16-63.36L66,39.09V120.5c0,7.6,1,14.34,6,19.32S88.66,145.11,96.26,145.11Z"/><path class="cls-4" d="M195.67,168.79c-.69.63-1.28,1.13-1.85,1.56a21.21,21.21,0,0,1-12.94,4.4H36.61V31.44A22.08,22.08,0,0,1,42.92,16l-3.4-3.4A26.87,26.87,0,0,0,31.8,31.44V179.55H180.88a26,26,0,0,0,15.84-5.37,27.6,27.6,0,0,0,2.35-2Z"/><polyline class="cls-3" points="121.22 66.34 123.46 62.04 88.94 62 93.28 66.34"/><polyline class="cls-3" points="117.08 39.09 126.61 49.25 76.19 49.25 66.04 39.09"/><polygon class="cls-3" points="158.34 23.78 159.44 38.72 176.8 38.95 159.65 49.75 159.84 67 148.46 56.58 130.81 67 141.38 49.75 130.73 38.95 148.23 38.72 158.34 23.78"/><polygon class="cls-3" points="164.39 137.48 164.39 124.01 172.01 116.36 172.01 145.11 164.39 137.48"/><polygon class="cls-3" points="172 116.35 164.41 124.01 126.32 85.96 141.53 85.96 172 116.35"/></g></g></svg>