<svg width="100" height="28" viewBox="0 0 100 28" fill="none" xmlns="http://www.w3.org/2000/svg">
	<g clip-path="url(#clip0_412_4980)">
		<path d="M21.7502 21.427C19.2374 22.2536 16.7593 22.8595 14.1954 22.9909C10.9728 23.1551 7.83045 22.8522 4.9071 21.2901C3.08958 20.3193 1.8341 18.8668 0.892497 17.0876C0.255635 15.885 -0.0910802 14.6296 0.0220585 13.2555C0.0713286 12.6533 0.0275329 12.0456 0.0311826 11.4398C0.0421315 9.02007 0.918044 6.90146 2.38885 5.0292C4.47279 2.37409 7.3268 0.919708 10.5257 0.0492701C10.6972 0.00182482 10.8852 0 11.0659 0C14.2301 0 17.3925 0 20.5549 0.00182482C20.6735 0.00182482 20.794 0.0218978 20.9016 0.0328467C21.3323 0.981752 21.8487 6.60219 21.6078 7.63321C20.5166 8.28832 17.2228 8.54745 16.0586 8.02555C15.856 7.20985 15.637 6.33394 15.4199 5.45803C15.1626 4.41423 14.7556 4.09307 13.6699 4.20985C12.0841 4.38139 10.8907 5.22993 10.0294 6.52555C8.5987 8.67701 8.22096 11.0383 8.73739 13.5529C8.80491 13.8796 8.87243 14.2062 8.97096 14.5237C9.54031 16.3431 10.7721 17.4599 12.5932 18.0292C13.7958 18.4051 14.9691 18.4434 16.1808 18.1551C16.5622 18.0639 16.9673 18.0693 17.3542 17.9982C17.7611 17.9234 18.1607 17.8084 18.6261 17.6971C18.5275 17.3193 18.4545 17.0328 18.3797 16.7482C17.6188 13.8376 18.3013 11.2956 20.4034 9.15693C22.356 7.16971 24.752 6.30474 27.5476 6.36679C29.3451 6.40693 31.0604 6.67153 32.6097 7.60219C33.4053 8.07847 34.1297 8.67336 34.9472 9.2573V7.03467C35.2246 6.58394 35.5604 6.43248 35.9892 6.43431C38.3925 6.44161 40.794 6.44161 43.1973 6.45073C43.3743 6.45073 43.5513 6.51095 43.8195 6.56022C43.929 6.93248 44.044 7.32482 44.179 7.7865C44.7903 7.55109 45.4181 7.34489 46.0148 7.07299C47.1681 6.55109 48.3889 6.29015 49.6334 6.25912C51.8889 6.20255 53.8852 7.52372 54.7118 9.58577C54.7994 9.80292 54.8323 10.0566 54.8341 10.2938C54.8432 12.6825 54.8396 15.0693 54.8396 17.5511C55.5878 16.958 56.2593 16.4288 57.0312 15.8175C56.7958 15.5858 56.5914 15.3485 56.3524 15.1533C55.1754 14.2007 54.7374 12.6405 55.0805 11.1624C55.6206 8.83029 57.2885 7.61496 59.3286 6.80292C61.4472 5.95803 63.6498 5.98905 65.8761 6.40876C66.6699 6.55839 67.502 6.51825 68.3177 6.52737C69.9254 6.5438 71.5348 6.53285 73.2082 6.53285C73.9181 7.48905 73.4837 8.5511 73.5531 9.47628C73.0823 10.1186 72.3852 9.7719 71.9199 10.0365C71.9965 10.8066 72.0914 11.5438 72.1389 12.2828C72.2411 13.8449 71.4345 14.9343 70.1973 15.7427C68.7118 16.7135 67.0294 17.1113 65.2794 17.2153C64.2794 17.2737 63.2739 17.2537 62.2702 17.2664C61.8779 17.2719 61.4837 17.2664 61.0111 17.2664C60.887 17.5274 60.7666 17.7792 60.575 18.1843C61.0914 18.2464 61.4655 18.3266 61.8396 18.3303C64.1808 18.3485 66.5239 18.3175 68.8633 18.3686C70.5403 18.4051 71.8706 19.1697 72.8962 20.5C73.825 21.7044 73.9399 23.6715 72.794 25.0383C71.8852 26.1223 70.7593 26.8412 69.4527 27.3175C68.1589 27.7901 66.8213 28.0036 65.4436 27.9982C63.741 27.9927 62.0367 28.0128 60.3341 27.9909C58.9874 27.9745 57.6717 27.7445 56.4618 27.1314C55.9582 26.8759 55.4673 26.5401 55.0659 26.146C54.2483 25.3431 54.0969 24.3704 54.5531 23.312C54.6005 23.2007 54.6425 23.0876 54.6826 22.9726C54.6918 22.9453 54.6826 22.9124 54.6826 22.7591C54.4308 22.7828 54.1827 22.7901 53.9418 22.8321C52.9108 23.0073 51.8816 23.0219 50.8633 22.781C50.4545 22.6843 50.0367 22.5493 49.6754 22.3431C48.6151 21.7354 47.929 20.8996 47.9564 19.5748C48.0056 17.2737 47.9728 14.9708 48.0075 12.6697C48.0184 12.0036 47.8542 11.4781 47.1772 11.1058C46.064 10.9343 45.0458 11.2865 44.0549 12.0858V22.6515C43.8213 22.7719 43.6644 22.9234 43.5075 22.9252C41.6535 22.9325 39.7994 22.9252 37.9454 22.896C37.7264 22.8923 37.5111 22.7245 37.2629 22.6204C37.2228 20.1642 37.1826 17.7518 37.1425 15.3394C37.0932 15.3394 37.044 15.3394 36.9929 15.3394C36.9272 15.6496 36.8414 15.9599 36.7976 16.2737C36.4527 18.7664 34.9217 20.3978 32.8797 21.6661C31.2228 22.6953 29.4053 23.0328 27.4783 23.0128C25.679 22.9945 23.9746 22.688 22.4199 21.7336C22.2155 21.6077 21.9801 21.5328 21.741 21.427H21.7502ZM27.7173 10.7993C26.9637 10.9799 26.3542 11.3303 26.0111 11.9799C25.1918 13.5365 25.1498 15.1332 26.0312 16.6679C26.8086 18.0201 28.4308 18.0675 29.3414 16.7974C30.1078 15.7263 30.2447 14.5201 29.9929 13.2463C29.7429 11.9781 29.1151 11.0712 27.7173 10.7993ZM61.0567 22.7628C61.8104 24.2153 65.6297 24.2664 66.7483 22.8376C65.721 21.5693 62.1826 21.5219 61.0567 22.7628ZM63.5275 13.3303C64.5622 13.3449 65.179 12.8577 65.2283 11.9854C65.2757 11.1405 64.7264 10.5693 63.7702 10.469C62.8834 10.3759 61.9874 11.0493 61.9381 11.8504C61.887 12.6606 62.5932 13.3193 63.5275 13.3321V13.3303ZM37.0239 14.1478C37.2027 12.7701 37.3651 11.5949 37.1425 10.427H35.7702C36.5659 11.5383 36.7465 12.7555 37.0221 14.1478H37.0239Z" fill="white" />
		<path d="M81.0037 26.9908C81.104 25.6314 81.1679 24.3777 81.5894 23.2116C82.3194 22.9507 82.9343 23.2116 83.5566 23.2938C84.6077 23.4343 85.6186 23.3467 86.5329 22.7573C87.0128 22.4489 87.2172 22.0182 87.0949 21.4598C86.4635 21.2609 85.8577 21.0967 85.2701 20.8814C84.5712 20.6241 84.1205 20.1058 83.8996 19.3996C83.3778 17.7281 82.8686 16.0529 82.3431 14.3832C81.9745 13.2098 81.5858 12.0438 81.0803 10.8959V18.2317C81.7172 18.2938 82.3084 18.3503 82.9982 18.4178C83.4252 19.8248 83.1898 21.2226 83.2354 22.6788C82.8048 22.7755 82.4927 22.9032 82.177 22.9069C79.8978 22.9343 77.6186 22.9489 75.3394 22.9397C74.9617 22.9397 74.5858 22.8011 74.2902 22.7445C73.8942 21.8832 73.6223 21.104 73.1971 20.4178C72.7829 19.75 72.2135 19.1788 71.5657 18.3887H74.0767V4.33208C73.2062 4.06566 72.2245 4.56383 71.5055 3.76821V0.266387C71.7938 0.175147 72.0657 0.0127378 72.3394 0.010913C75.0146 -0.0055104 77.6898 0.00361369 80.365 0.010913C80.4818 0.010913 80.5967 0.0583582 80.8212 0.109453C81.3139 2.11128 80.9143 4.17515 81.0931 6.32661C81.4106 6.36128 81.7555 6.4288 82.1022 6.43245C83.2883 6.44704 84.4726 6.43245 85.6588 6.44157C85.9891 6.44339 86.3194 6.47989 86.5931 6.49814C87.1478 6.92697 87.3011 7.49266 87.4216 8.04923C87.9562 10.5328 88.4653 13.0219 88.9872 15.5073C89.031 15.7116 89.104 15.9105 89.1898 16.2062C89.3559 16.0529 89.5219 15.9689 89.5803 15.8357C90.3194 14.1131 91.042 12.3832 91.7975 10.5857C91.3394 10.4105 90.9106 10.2463 90.3887 10.0474V6.76274C89.3157 7.1423 88.3942 7.15872 87.4124 6.56201C88.1004 5.23536 88.8723 4.03464 89.6807 2.78099C90.9708 2.69704 92.2464 2.5985 93.6113 2.82478C93.4489 3.79376 92.6661 4.15507 92.1825 4.72259C91.6989 5.29011 91.1369 5.79011 90.4781 6.45069H98.9507C99.3997 7.08573 99.1953 7.62588 98.9672 8.16237C98.011 10.416 97.0548 12.6697 96.0913 14.9197C94.9398 17.6113 93.7792 20.2992 92.6241 22.989C92.5876 23.0711 92.5657 23.1605 92.5456 23.25C92 25.6934 89.5675 27.8832 86.5146 27.8795C85 27.8795 83.4726 27.9251 82.011 27.4069C81.7044 27.2974 81.407 27.1605 81.0073 26.9945L81.0037 26.9908Z" fill="white" />
		<path d="M27.7044 4.90505C27.2646 5.49629 26.9362 6.09666 26.2208 6.16053C25.2956 6.24082 24.354 6.36308 23.4362 5.89228C23.4745 5.7171 23.4672 5.54921 23.5438 5.4379C24.3157 4.32294 25.1022 3.21527 25.9216 2.05469H29.2263C29.9964 3.12586 30.8267 4.26819 31.6351 5.42695C31.7245 5.55469 31.6862 5.77002 31.7117 5.99264C30.9727 6.34848 30.2208 6.22804 29.4818 6.18425C28.6643 6.1368 28.2646 5.4744 27.7044 4.90688V4.90505Z" fill="white" />
	</g>
	<defs>
		<clipPath id="clip0_412_4980">
			<rect width="99.2135" height="28" fill="white" />
		</clipPath>
	</defs>
</svg>
